<?xml version="1.0" encoding="utf-8"?>
<!-- Generator: Adobe Illustrator 22.0.0, SVG Export Plug-In . SVG Version: 6.00 Build 0)  -->
<svg version="1.1" id="图层_1" xmlns="http://www.w3.org/2000/svg" xmlns:xlink="http://www.w3.org/1999/xlink" x="0px" y="0px"
	 viewBox="0 0 60 60" style="enable-background:new 0 0 60 60;" xml:space="preserve">
<style type="text/css">
	.st0{fill:#FF8164;}
</style>
<g id="XMLID_1_">
</g>
<g id="XMLID_2_">
</g>
<g id="XMLID_3_">
</g>
<g id="XMLID_4_">
</g>
<g id="XMLID_5_">
</g>
<g>
	<path class="st0" d="M23.2,13.7c0,0.1,0,0.2,0,0.3c0,0.2,0,0.4,0,0.7c0,0.2,0,0.4,0,0.7c0,0.3,0,0.7,0,1c0,0.4,0,0.9,0,1.3
		c0,0.3,0,0.7,0,1c0,0.8,0,1.5,0,2.3c0,0.7,0,1.3,0,2c-0.8,0-1.5,0-2.3,0c-0.4,0-0.9,0-1.3,0c-0.3,0-0.7,0-1,0c-0.4,0-0.9,0-1.3,0
		c-0.3,0-0.7,0-1,0c-0.2,0-0.4,0-0.7,0c-0.4,0-0.9,0-1.3,0c-0.1,0-0.2,0-0.3,0c0-0.8,0-1.5,0-2.3c0-0.8,0-1.5,0-2.3
		c0-0.4,0-0.9,0-1.3c0-0.3,0-0.7,0-1c0-0.4,0-0.9,0-1.3c0-0.2,0-0.4,0-0.7c0-0.1,0-0.2,0-0.3c0.4,0,0.9,0,1.3,0c0.3,0,0.7,0,1,0
		c0.7,0,1.3,0,2,0c0.3,0,0.7,0,1,0c0.3,0,0.7,0,1,0c0.7,0,1.3,0,2,0C22.6,13.7,22.9,13.7,23.2,13.7z M15.4,16c0,0.4,0,0.9,0,1.3
		c0,0.4,0,0.9,0,1.3c0,1,0,2,0,2.9c0.2,0,0.4,0,0.7,0c0.1,0,0.2,0,0.3,0c0.2,0,0.4,0,0.7,0c0.2,0,0.4,0,0.7,0c0.3,0,0.7,0,1,0
		c0.2,0,0.4,0,0.7,0c0.3,0,0.7,0,1,0c0.2,0,0.4,0,0.7,0c0.3,0,0.7,0,1,0c0-1.1,0-2.2,0-3.3c0-1.1,0-2.2,0-3.3c-0.4,0-0.9,0-1.3,0
		c-0.2,0-0.4,0-0.7,0c-0.3,0-0.7,0-1,0c-0.2,0-0.4,0-0.7,0c-0.3,0-0.7,0-1,0c-0.2,0-0.4,0-0.7,0c-0.4,0-0.9,0-1.3,0
		C15.4,15.3,15.4,15.6,15.4,16z"/>
	<path class="st0" d="M24.5,13.7c1.3,0,2.6,0,3.9,0c0,0.4,0,0.9,0,1.3c0.9,0,1.7,0,2.6,0c0,0.4,0,0.9,0,1.3c0.4,0,0.9,0,1.3,0
		c0,0.4,0,0.9,0,1.3c0.9,0,1.7,0,2.6,0c0-0.2,0-0.4,0-0.7c0-0.1,0-0.3,0-0.3c0-0.1,0-0.3,0-0.3c0,0,0.3,0,0.3,0c0.1,0,0.2,0,0.3,0
		c0.2,0,0.4,0,0.7,0c0,0.3,0,0.7,0,1c0,0.3,0,0.7,0,1c0,0.2,0,0.4,0,0.7c-0.7,0-1.3,0-2,0c-0.3,0-0.7,0-1,0c-0.3,0-0.7,0-1,0
		c0,0.2,0,0.4,0,0.7c0,0.1,0,0.2,0,0.3c0,0.1,0,0.3,0,0.3c-0.1,0.1-0.3,0-0.3,0c-0.3,0-0.7,0-1,0c0-0.4,0-0.9,0-1.3
		c-0.4,0-0.9,0-1.3,0c0-0.9,0-1.7,0-2.6c-0.3,0-0.7,0-1,0c-0.1,0-0.3-0.1-0.3,0c0,0,0,0.3,0,0.3c0,0.1,0,0.2,0,0.3
		c0,0.1,0,0.2,0,0.3c0,0.3,0,0.7,0,1c0,0.3,0,0.7,0,1c0,0.3,0,0.7,0,1c-0.4,0-0.9,0-1.3,0c0-0.3,0-0.7,0-1c0-0.1,0.1-0.3,0-0.3
		c0,0-0.3,0-0.3,0c-0.1,0-0.2,0-0.3,0c-0.2,0-0.4,0-0.7,0c-0.4,0-0.9,0-1.3,0c0-0.3,0-0.7,0-1c0-0.1-0.1-0.3,0-0.3c0,0,0.3,0,0.3,0
		c0.1,0,0.2,0,0.3,0c0.2,0,0.4,0,0.7,0c0-0.3,0-0.7,0-1c0-0.1,0.1-0.3,0-0.3c0,0-0.3,0-0.3,0c-0.1,0-0.2,0-0.3,0c-0.2,0-0.4,0-0.7,0
		c0-0.4,0-0.9,0-1.3C24.5,14.5,24.5,14.1,24.5,13.7z"/>
	<path class="st0" d="M37.6,13.7c0.1,0,0.2,0,0.3,0c1.5,0,3,0,4.6,0c0.8,0,1.5,0,2.3,0c0.7,0,1.3,0,2,0c0,0.4,0,0.9,0,1.3
		c0,0.3,0,0.7,0,1c0,0.4,0,0.9,0,1.3c0,0.3,0,0.7,0,1c0,0.8,0,1.5,0,2.3c0,0.8,0,1.5,0,2.3c-1.5,0-3,0-4.6,0c-0.3,0-0.7,0-1,0
		c-0.4,0-0.9,0-1.3,0c-0.4,0-0.9,0-1.3,0c-0.3,0-0.7,0-1,0c0-0.8,0-1.5,0-2.3c0-0.8,0-1.5,0-2.3c0-0.3,0-0.7,0-1c0-0.4,0-0.9,0-1.3
		c0-0.3,0-0.7,0-1C37.6,14.5,37.6,14.1,37.6,13.7z M38.9,16c0,0.4,0,0.9,0,1.3c0,0.4,0,0.9,0,1.3c0,1,0,2,0,2.9c0.2,0,0.4,0,0.7,0
		c0.3,0,0.7,0,1,0c0.2,0,0.4,0,0.7,0c0.3,0,0.7,0,1,0c0.2,0,0.4,0,0.7,0c0.3,0,0.7,0,1,0c0.2,0,0.4,0,0.7,0c0.3,0,0.7,0,1,0
		c0-0.2,0-0.4,0-0.7c0-0.5,0-1.1,0-1.6c0-0.3,0-0.7,0-1c0-0.2,0-0.4,0-0.7c0-0.3,0-0.7,0-1c0-0.5,0-1.1,0-1.6c-0.4,0-0.9,0-1.3,0
		c-0.2,0-0.4,0-0.7,0c-0.3,0-0.7,0-1,0c-0.2,0-0.4,0-0.7,0c-0.3,0-0.7,0-1,0c-0.2,0-0.4,0-0.7,0c-0.4,0-0.9,0-1.3,0
		C38.9,15.3,38.9,15.6,38.9,16z"/>
	<path class="st0" d="M16.7,16.3c0.8,0,1.5,0,2.3,0c0.3,0,0.7,0,1,0c0.2,0,0.4,0,0.7,0c0,0.7,0,1.3,0,2c0,0.7,0,1.3,0,2
		c-0.7,0-1.3,0-2,0c-0.3,0-0.7,0-1,0c-0.3,0-0.7,0-1,0c0-1,0-2,0-2.9C16.7,16.9,16.7,16.6,16.7,16.3z"/>
	<path class="st0" d="M40.2,16.3c1.3,0,2.6,0,3.9,0c0,0.7,0,1.3,0,2c0,0.7,0,1.3,0,2c-1.3,0-2.6,0-3.9,0c0-1,0-2,0-2.9
		C40.2,16.9,40.2,16.6,40.2,16.3z"/>
	<path class="st0" d="M27.2,20.2c0,0.4,0,0.9,0,1.3c-0.4,0-0.9,0-1.3,0c0-0.4,0-0.9,0-1.3C26.3,20.2,26.7,20.2,27.2,20.2z"/>
	<path class="st0" d="M28.5,20.2c0.9,0,1.7,0,2.6,0c0,0.2,0,0.4,0,0.7c0,0.3,0,0.7,0,1c0,0.3,0,0.7,0,1c0,0.3,0,0.7,0,1
		c0,0.3,0,0.7,0,1c0,0.3,0,0.7,0,1c0,0.3,0,0.7,0,1c0.3,0,0.7,0,1,0c0.1,0,0.3,0.1,0.3,0c0,0,0-0.3,0-0.3c0-0.1,0-0.2,0-0.3
		c0-0.2,0-0.4,0-0.7c0-0.1,0-0.2,0-0.3c0-0.1,0-0.2,0-0.3c0-0.1,0-0.2,0-0.3c0,0,0-0.3,0-0.3c0.1-0.1,0.3,0,0.3,0c0.3,0,0.7,0,1,0
		c0,0.3,0,0.7,0,1c0,0.3,0,0.7,0,1c0,0.7,0,1.3,0,2c-0.4,0-0.9,0-1.3,0c0,0.4,0,0.9,0,1.3c0,0.1,0,0.2,0,0.3c0,0.1,0,0.2,0,0.3
		c0,0.1,0,0.2,0,0.3c0,0,0,0.3,0,0.3c-0.1,0.1-0.3,0-0.3,0c-0.3,0-0.7,0-1,0c0-0.2,0-0.4,0-0.7c0-0.3,0-0.7,0-1c0-0.3,0-0.7,0-1
		c-0.4,0-0.9,0-1.3,0c0-0.9,0-1.7,0-2.6c-0.9,0-1.7,0-2.6,0c0,0.3,0,0.7,0,1c0,0.3,0,0.7,0,1c0,0.7,0,1.3,0,2c-0.4,0-0.9,0-1.3,0
		c0,0.3,0,0.7,0,1c0,0.3,0,0.7,0,1c0,0.3,0,0.7,0,1c0,0.3,0,0.7,0,1c-0.4,0-0.9,0-1.3,0c-0.3,0-0.7,0-1,0c-0.3,0-0.7,0-1,0
		c-0.2,0-0.4,0-0.7,0c0,0.4,0,0.9,0,1.3c-0.4,0-0.9,0-1.3,0c0-0.9,0-1.7,0-2.6c-0.3,0-0.7,0-1,0c-0.4,0-0.9,0-1.3,0
		c-0.3,0-0.7,0-1,0c-0.2,0-0.4,0-0.7,0c0,0.4,0,0.9,0,1.3c-0.4,0-0.9,0-1.3,0c0-0.8,0-1.5,0-2.3c0-0.3,0-0.7,0-1c0-0.2,0-0.4,0-0.7
		c0-0.3,0-0.7,0-1c0-0.2,0-0.4,0-0.7c0-0.3,0-0.7,0-1c0.9,0,1.7,0,2.6,0c0,0.4,0,0.9,0,1.3c-0.4,0-0.9,0-1.3,0c0,0.9,0,1.7,0,2.6
		c0.7,0,1.3,0,2,0c0.3,0,0.7,0,1,0c0.3,0,0.7,0,1,0c0-0.4,0-0.9,0-1.3c0.9,0,1.7,0,2.6,0c0,0.4,0,0.9,0,1.3c-0.4,0-0.9,0-1.3,0
		c0,0.4,0,0.9,0,1.3c0.4,0,0.9,0,1.3,0c0-0.4,0-0.9,0-1.3c0.4,0,0.9,0,1.3,0c0-0.4,0-0.9,0-1.3c-0.4,0-0.9,0-1.3,0
		c0-0.4,0-0.9,0-1.3c-0.2,0-0.4,0-0.7,0c-0.1,0-0.2,0-0.3,0c-0.1,0-0.3,0-0.3,0c-0.1-0.1,0-0.3,0-0.3c0-0.3,0-0.7,0-1
		c0.2,0,0.4,0,0.7,0c0.2,0,0.4,0,0.7,0c0-0.4,0-0.9,0-1.3c-0.4,0-0.9,0-1.3,0c-0.4,0-0.9,0-1.3,0c0-0.4,0-0.9,0-1.3c0.3,0,0.7,0,1,0
		c0.3,0,0.7,0,1,0c0.7,0,1.3,0,2,0c0,0.4,0,0.9,0,1.3c0.4,0,0.9,0,1.3,0c0-0.4,0-0.9,0-1.3c0.7,0,1.3,0,2,0c0.3,0,0.7,0,1,0
		c0.3,0,0.7,0,1,0c0-0.3,0-0.7,0-1c0-0.2,0-0.4,0-0.7c0-0.3,0-0.7,0-1c-0.4,0-0.9,0-1.3,0C28.5,21.1,28.5,20.6,28.5,20.2z M24.5,28
		c0.4,0,0.9,0,1.3,0c0-0.4,0-0.9,0-1.3c-0.4,0-0.9,0-1.3,0C24.5,27.2,24.5,27.6,24.5,28z"/>
	<path class="st0" d="M35,20.2c0.4,0,0.9,0,1.3,0c0,0.4,0,0.9,0,1.3c0,0.2,0,0.4,0,0.7c0,0.1,0,0.2,0,0.3c0,0.1,0,0.3,0,0.3
		c-0.1,0.1-0.3,0-0.3,0c-0.3,0-0.7,0-1,0c0-0.3,0-0.7,0-1c0-0.3,0-0.7,0-1C35,20.6,35,20.4,35,20.2z"/>
	<path class="st0" d="M25.8,21.5c0,0.9,0,1.7,0,2.6c-0.4,0-0.9,0-1.3,0c0-0.9,0-1.7,0-2.6C25,21.5,25.4,21.5,25.8,21.5z"/>
	<path class="st0" d="M27.2,21.5c0.4,0,0.9,0,1.3,0c0,0.4,0,0.9,0,1.3c-0.4,0-0.9,0-1.3,0C27.2,22.4,27.2,21.9,27.2,21.5z"/>
	<path class="st0" d="M32.4,21.5c0.4,0,0.9,0,1.3,0c0,0.4,0,0.9,0,1.3c-0.4,0-0.9,0-1.3,0C32.4,22.4,32.4,21.9,32.4,21.5z"/>
	<path class="st0" d="M14.1,24.1c0.1,0,0.2,0,0.3,0c0.1,0,0.2,0,0.3,0c0.2,0,0.4,0,0.7,0c0,0.4,0,0.9,0,1.3c-0.4,0-0.9,0-1.3,0
		C14.1,25,14.1,24.6,14.1,24.1z"/>
	<path class="st0" d="M20.6,25.4c0,0.4,0,0.9,0,1.3c-0.9,0-1.7,0-2.6,0c0-0.2,0-0.4,0-0.7c0-0.2,0-0.4,0-0.7c-0.2,0-0.4,0-0.7,0
		s-0.4,0-0.7,0c0-0.4,0-0.9,0-1.3c0.4,0,0.9,0,1.3,0c0.4,0,0.9,0,1.3,0c0,0.4,0,0.9,0,1.3C19.8,25.4,20.2,25.4,20.6,25.4z"/>
	<path class="st0" d="M36.3,25.4c-0.4,0-0.9,0-1.3,0c0-0.4,0-0.9,0-1.3c0.4,0,0.9,0,1.3,0C36.3,24.6,36.3,25,36.3,25.4z"/>
	<path class="st0" d="M42.8,26.7c0,0.4,0,0.9,0,1.3c1.3,0,2.6,0,3.9,0c0,0.4,0,0.9,0,1.3c-0.4,0-0.9,0-1.3,0c0,0.4,0,0.9,0,1.3
		c0.4,0,0.9,0,1.3,0c0,0.4,0,0.9,0,1.3c-0.4,0-0.9,0-1.3,0c0,1.3,0,2.6,0,3.9c-0.9,0-1.7,0-2.6,0c0-0.4,0-0.9,0-1.3
		c0.4,0,0.9,0,1.3,0c0-0.3,0-0.7,0-1c0-0.1,0.1-0.3,0-0.3c0,0-0.3,0-0.3,0c-0.1,0-0.2,0-0.3,0c-0.1,0-0.2,0-0.3,0c0,0-0.3,0-0.3,0
		c-0.1-0.1,0-0.3,0-0.3c0-0.3,0-0.7,0-1c0.2,0,0.4,0,0.7,0c0.2,0,0.4,0,0.7,0c0-0.2,0-0.4,0-0.7c0-0.2,0-0.4,0-0.7
		c-0.4,0-0.9,0-1.3,0c0-0.4,0-0.9,0-1.3c-0.4,0-0.9,0-1.3,0c0-0.4,0-0.9,0-1.3c-0.4,0-0.9,0-1.3,0c0,0.3,0,0.7,0,1
		c0,0.4,0,0.9,0,1.3c0,0.1,0,0.2,0,0.3c0.2,0,0.4,0,0.7,0c0.1,0,0.2,0,0.3,0c0.1,0,0.3,0,0.3,0c0.1,0.1,0,0.3,0,0.3
		c0,0.2,0,0.4,0,0.7c0,0.1,0.1,0.3,0,0.3c0,0-0.3,0-0.3,0c-0.1,0-0.2,0-0.3,0c-0.1,0-0.2,0-0.3,0c-0.1,0-0.2,0-0.3,0
		c0,0.2,0,0.4,0,0.7c0,0.1,0,0.2,0,0.3c0,0.1,0,0.3,0,0.3c-0.1,0.1-0.3,0-0.3,0c-0.3,0-0.7,0-1,0c0-0.4,0-0.9,0-1.3
		c-0.9,0-1.7,0-2.6,0c0,0.9,0,1.7,0,2.6c0.4,0,0.9,0,1.3,0c0-0.4,0-0.9,0-1.3c0.2,0,0.4,0,0.7,0c0.2,0,0.4,0,0.7,0
		c0,0.4,0,0.9,0,1.3c0.9,0,1.7,0,2.6,0c0,0.4,0,0.9,0,1.3c0.4,0,0.9,0,1.3,0c0,1.3,0,2.6,0,3.9c-0.4,0-0.9,0-1.3,0
		c0,0.9,0,1.7,0,2.6c0.4,0,0.9,0,1.3,0c0,0.4,0,0.9,0,1.3c0.4,0,0.9,0,1.3,0c0,0.4,0,0.9,0,1.3c0.9,0,1.7,0,2.6,0c0,0.4,0,0.9,0,1.3
		c-0.3,0-0.7,0-1,0c-0.2,0-0.4,0-0.7,0c-0.8,0-1.5,0-2.3,0c0-0.4,0-0.9,0-1.3c-0.4,0-0.9,0-1.3,0c0-0.4,0-0.9,0-1.3
		c-0.4,0-0.9,0-1.3,0c0-0.9,0-1.7,0-2.6c-0.4,0-0.9,0-1.3,0c0,0.4,0,0.9,0,1.3c0,0.4,0,0.9,0,1.3c-0.3,0-0.7,0-1,0
		c-0.2,0-0.4,0-0.7,0c-0.4,0-0.9,0-1.3,0c-0.4,0-0.9,0-1.3,0c-0.1,0-0.2,0-0.3,0c-0.1,0-0.2,0-0.3,0c-0.1,0-0.3,0-0.3,0
		c-0.1-0.1,0-0.3,0-0.3c0-0.2,0-0.4,0-0.7c0-0.1-0.1-0.3,0-0.3c0,0,0.3,0,0.3,0c0.1,0,0.2,0,0.3,0c0.1,0,0.2,0,0.3,0
		c0.1,0,0.2,0,0.3,0c0-0.9,0-1.7,0-2.6c-0.9,0-1.7,0-2.6,0c0-0.4,0-0.9,0-1.3c0.3,0,0.7,0,1,0c0.3,0,0.7,0,1,0c0.2,0,0.4,0,0.7,0
		c0-0.7,0-1.3,0-2c0-0.3,0-0.7,0-1c0-0.3,0-0.7,0-1c-0.3,0-0.7,0-1,0c-0.2,0-0.4,0-0.7,0c-0.3,0-0.7,0-1,0c0-0.2,0-0.4,0-0.7
		c0-0.2,0-0.4,0-0.7c0.2,0,0.4,0,0.7,0c0.3,0,0.7,0,1,0s0.7,0,1,0c0-0.2,0-0.4,0-0.7c0-0.1,0-0.2,0-0.3c0,0,0-0.3,0-0.3
		c0,0-0.3,0-0.3,0c-0.1,0-0.2,0-0.3,0c-0.2,0-0.4,0-0.7,0c0-0.1,0-0.2,0-0.3c0-0.4,0-0.9,0-1.3c0-0.3,0-0.7,0-1c0.2,0,0.4,0,0.7,0
		c0.1,0,0.2,0,0.3,0c0,0,0.3,0,0.3,0c0,0,0,0.3,0,0.3c0,0.1,0,0.2,0,0.3c0,0.2,0,0.4,0,0.7c0.9,0,1.7,0,2.6,0c0-0.9,0-1.7,0-2.6
		c0.4,0,0.9,0,1.3,0c0-0.4,0-0.9,0-1.3c-0.4,0-0.9,0-1.3,0c0,0.4,0,0.9,0,1.3c-0.4,0-0.9,0-1.3,0c-0.4,0-0.9,0-1.3,0
		c0-0.4,0-0.9,0-1.3c0.4,0,0.9,0,1.3,0c0-0.4,0-0.9,0-1.3c0.3,0,0.7,0,1,0c0.1,0,0.3,0.1,0.3,0c0,0,0-0.3,0-0.3c0-0.1,0-0.2,0-0.3
		c0-0.2,0-0.4,0-0.7c0.4,0,0.9,0,1.3,0c0,0.4,0,0.9,0,1.3c0.4,0,0.9,0,1.3,0c0,0.4,0,0.9,0,1.3C41.1,26.7,42,26.7,42.8,26.7z
		 M36.3,39.8c1.3,0,2.6,0,3.9,0c0-1.3,0-2.6,0-3.9c-1.3,0-2.6,0-3.9,0C36.3,37.2,36.3,38.5,36.3,39.8z"/>
	<path class="st0" d="M42.8,25.4c-0.4,0-0.9,0-1.3,0c0-0.4,0-0.9,0-1.3c0.4,0,0.9,0,1.3,0C42.8,24.6,42.8,25,42.8,25.4z"/>
	<path class="st0" d="M46.7,24.1c0,0.4,0,0.9,0,1.3c-0.9,0-1.7,0-2.6,0c0-0.4,0-0.9,0-1.3C45,24.1,45.9,24.1,46.7,24.1z"/>
	<path class="st0" d="M42.8,25.4c0.4,0,0.9,0,1.3,0c0,0.4,0,0.9,0,1.3c-0.4,0-0.9,0-1.3,0C42.8,26.3,42.8,25.9,42.8,25.4z"/>
	<path class="st0" d="M18,28c0.4,0,0.9,0,1.3,0c0,0.4,0,0.9,0,1.3c-0.4,0-0.9,0-1.3,0C18,28.9,18,28.5,18,28z"/>
	<path class="st0" d="M29.8,28c0,0.4,0,0.9,0,1.3c-0.4,0-0.9,0-1.3,0c0-0.4,0-0.9,0-1.3C28.9,28,29.3,28,29.8,28z"/>
	<path class="st0" d="M29.8,32c-0.4,0-0.9,0-1.3,0c0-0.4,0-0.9,0-1.3c0.4,0,0.9,0,1.3,0C29.8,31.1,29.8,31.5,29.8,32z"/>
	<path class="st0" d="M29.8,32c0.9,0,1.7,0,2.6,0c0,0.4,0,0.9,0,1.3c-0.4,0-0.9,0-1.3,0c0,0.4,0,0.9,0,1.3c-0.4,0-0.9,0-1.3,0
		C29.8,33.7,29.8,32.8,29.8,32z"/>
	<path class="st0" d="M14.1,33.3c0.2,0,0.4,0,0.7,0c0.2,0,0.4,0,0.7,0c0,0.4,0,0.9,0,1.3c-0.4,0-0.9,0-1.3,0
		C14.1,34.1,14.1,33.7,14.1,33.3z"/>
	<path class="st0" d="M16.7,33.3c0.4,0,0.9,0,1.3,0c0,0.4,0,0.9,0,1.3c-0.4,0-0.9,0-1.3,0C16.7,34.1,16.7,33.7,16.7,33.3z"/>
	<path class="st0" d="M28.5,34.6c-0.4,0-0.9,0-1.3,0c0-0.4,0-0.9,0-1.3c0.4,0,0.9,0,1.3,0C28.5,33.7,28.5,34.1,28.5,34.6z"/>
	<path class="st0" d="M20.6,34.6c0,0.4,0,0.9,0,1.3c-0.4,0-0.9,0-1.3,0c0-0.4,0-0.9,0-1.3C19.8,34.6,20.2,34.6,20.6,34.6z"/>
	<path class="st0" d="M21.9,34.6c0.4,0,0.9,0,1.3,0c0,0.4,0,0.9,0,1.3c-0.4,0-0.9,0-1.3,0C21.9,35.4,21.9,35,21.9,34.6z"/>
	<path class="st0" d="M28.5,34.6c0.4,0,0.9,0,1.3,0c0,0.4,0,0.9,0,1.3c-0.4,0-0.9,0-1.3,0C28.5,35.4,28.5,35,28.5,34.6z"/>
	<path class="st0" d="M28.5,35.9c0,0.1,0,0.2,0,0.3c0,0.3,0,0.7,0,1c0.2,0,0.4,0,0.7,0c0.2,0,0.4,0,0.7,0c0-0.4,0-0.9,0-1.3
		c0.3,0,0.7,0,1,0c0.3,0,0.7,0,1,0c0.3,0,0.7,0,1,0c0.1,0,0.2,0,0.3,0c0.1,0,0.2,0,0.3,0c0.1,0,0.3,0,0.3,0c0.1,0.1,0,0.3,0,0.3
		c0,0.3,0,0.7,0,1c-0.9,0-1.7,0-2.6,0c0,0.2,0,0.4,0,0.7c0,0.3,0,0.7,0,1c0,0.2,0,0.4,0,0.7c0,0.1-0.1,0.3,0,0.3c0,0,0.3,0,0.3,0
		c0.1,0,0.2,0,0.3,0c0.1,0,0.2,0,0.3,0c0.1,0,0.2,0,0.3,0c0,1.3,0,2.6,0,3.9c-0.7,0-1.3,0-2,0c-0.3,0-0.7,0-1,0c-0.3,0-0.7,0-1,0
		c0,0.4,0,0.9,0,1.3c0,0.4,0,0.9,0,1.3c-0.7,0-1.3,0-2,0c-0.7,0-1.3,0-2,0c0-0.4,0-0.9,0-1.3c0.4,0,0.9,0,1.3,0c0-0.3,0-0.7,0-1
		c0-0.1,0.1-0.3,0-0.3c0,0-0.3,0-0.3,0c-0.1,0-0.2,0-0.3,0c-0.2,0-0.4,0-0.7,0c0-0.9,0-1.7,0-2.6c0.4,0,0.9,0,1.3,0
		c0-0.4,0-0.9,0-1.3c1.3,0,2.6,0,3.9,0c0-0.3,0-0.7,0-1c0-0.1,0.1-0.3,0-0.3c0,0-0.3,0-0.3,0c-0.1,0-0.2,0-0.3,0c-0.1,0-0.2,0-0.3,0
		c-0.1,0-0.2,0-0.3,0c-0.4,0-0.9,0-1.3,0c0-0.4,0-0.9,0-1.3c-0.4,0-0.9,0-1.3,0c0,0.4,0,0.9,0,1.3c0,0.4,0,0.9,0,1.3
		c-0.4,0-0.9,0-1.3,0c0-0.4,0-0.9,0-1.3c0-0.3,0-0.7,0-1c0-0.2,0-0.4,0-0.7c0-0.3,0-0.7,0-1c0.3,0,0.7,0,1,0c0.3,0,0.7,0,1,0
		C27.2,35.9,27.8,35.9,28.5,35.9z M28.5,42.4c0.4,0,0.9,0,1.3,0c0-0.4,0-0.9,0-1.3c-0.4,0-0.9,0-1.3,0C28.5,41.5,28.5,42,28.5,42.4z
		"/>
	<path class="st0" d="M45.4,35.9c0.4,0,0.9,0,1.3,0c0,0.9,0,1.7,0,2.6c-0.2,0-0.4,0-0.7,0c-0.2,0-0.4,0-0.7,0c0,0.4,0,0.9,0,1.3
		c-0.4,0-0.9,0-1.3,0c0-0.9,0-1.7,0-2.6c0.4,0,0.9,0,1.3,0C45.4,36.7,45.4,36.3,45.4,35.9z"/>
	<path class="st0" d="M14.1,37.2c0.1,0,0.2,0,0.3,0c0.2,0,0.4,0,0.7,0c0.4,0,0.9,0,1.3,0c0.3,0,0.7,0,1,0c0.4,0,0.9,0,1.3,0
		c0.3,0,0.7,0,1,0c0.4,0,0.9,0,1.3,0c0.4,0,0.9,0,1.3,0c0.3,0,0.7,0,1,0c0,0.8,0,1.5,0,2.3c0,0.8,0,1.5,0,2.3c0,1.5,0,3,0,4.6
		c-0.8,0-1.5,0-2.3,0c-0.8,0-1.5,0-2.3,0c-0.4,0-0.9,0-1.3,0c-0.3,0-0.7,0-1,0c-0.4,0-0.9,0-1.3,0c-0.2,0-0.4,0-0.7,0
		c-0.1,0-0.2,0-0.3,0c0-2.7,0-5.4,0-8.2C14.1,37.8,14.1,37.5,14.1,37.2z M15.4,39.5c0,0.9,0,1.7,0,2.6c0,1,0,2,0,2.9
		c0.2,0,0.4,0,0.7,0c0.1,0,0.2,0,0.3,0c0.2,0,0.4,0,0.7,0c0.2,0,0.4,0,0.7,0c0.3,0,0.7,0,1,0c0.2,0,0.4,0,0.7,0c0.3,0,0.7,0,1,0
		c0.2,0,0.4,0,0.7,0c0.3,0,0.7,0,1,0c0-0.2,0-0.4,0-0.7c0-0.3,0-0.7,0-1c0-0.2,0-0.4,0-0.7c0-0.3,0-0.7,0-1c0-0.2,0-0.4,0-0.7
		c0-0.5,0-1.1,0-1.6c0-0.3,0-0.7,0-1c-1,0-2,0-2.9,0c-0.2,0-0.4,0-0.7,0c-0.3,0-0.7,0-1,0c-0.2,0-0.4,0-0.7,0c-0.4,0-0.9,0-1.3,0
		C15.4,38.8,15.4,39.1,15.4,39.5z"/>
	<path class="st0" d="M37.6,37.2c0.4,0,0.9,0,1.3,0c0,0.4,0,0.9,0,1.3c-0.4,0-0.9,0-1.3,0C37.6,38,37.6,37.6,37.6,37.2z"/>
	<path class="st0" d="M16.7,39.8c0.8,0,1.5,0,2.3,0c0.3,0,0.7,0,1,0c0.2,0,0.4,0,0.7,0c0,1.3,0,2.6,0,3.9c-0.7,0-1.3,0-2,0
		c-0.3,0-0.7,0-1,0c-0.3,0-0.7,0-1,0C16.7,42.4,16.7,41.1,16.7,39.8z"/>
	<path class="st0" d="M46.7,41.1c0,0.4,0,0.9,0,1.3c-0.4,0-0.9,0-1.3,0c0,0.4,0,0.9,0,1.3c-0.4,0-0.9,0-1.3,0c0-0.4,0-0.9,0-1.3
		c0-0.4,0-0.9,0-1.3C45,41.1,45.9,41.1,46.7,41.1z"/>
	<path class="st0" d="M38.9,43.7c0.4,0,0.9,0,1.3,0c0,0.4,0,0.9,0,1.3c-0.4,0-0.9,0-1.3,0C38.9,44.6,38.9,44.1,38.9,43.7z"/>
	<path class="st0" d="M31.1,46.3c-0.4,0-0.9,0-1.3,0c0-0.4,0-0.9,0-1.3c0.4,0,0.9,0,1.3,0C31.1,45.4,31.1,45.9,31.1,46.3z"/>
	<path class="st0" d="M33.7,46.3c-0.4,0-0.9,0-1.3,0c0-0.4,0-0.9,0-1.3c0.4,0,0.9,0,1.3,0C33.7,45.4,33.7,45.9,33.7,46.3z"/>
	<path class="st0" d="M37.6,46.3c-0.4,0-0.9,0-1.3,0c0-0.4,0-0.9,0-1.3c0.4,0,0.9,0,1.3,0C37.6,45.4,37.6,45.9,37.6,46.3z"/>
	<path class="st0" d="M40.2,45c0.4,0,0.9,0,1.3,0c0,0.4,0,0.9,0,1.3c-0.4,0-0.9,0-1.3,0C40.2,45.9,40.2,45.4,40.2,45z"/>
</g>
</svg>
