<?xml version="1.0" encoding="utf-8"?>
<!-- Generator: Adobe Illustrator 19.0.0, SVG Export Plug-In . SVG Version: 6.00 Build 0)  -->
<svg version="1.1" id="图层_1" xmlns="http://www.w3.org/2000/svg" xmlns:xlink="http://www.w3.org/1999/xlink" x="0px" y="0px"
	 viewBox="0 0 60 60" style="enable-background:new 0 0 60 60;" xml:space="preserve">
<style type="text/css">
	.st0{opacity:0.8;fill:url(#SVGID_1_);}
	.st1{opacity:0.2;clip-path:url(#SVGID_3_);fill:url(#SVGID_4_);}
	.st2{fill:#525E6E;}
	.st3{fill:#D0E7EF;}
	.st4{fill:#6D7F96;}
</style>
<g id="XMLID_592_">
</g>
<g id="XMLID_595_">
</g>
<g id="XMLID_596_">
</g>
<g id="XMLID_597_">
</g>
<g id="XMLID_598_">
</g>
<linearGradient id="SVGID_1_" gradientUnits="userSpaceOnUse" x1="10.7856" y1="29.7874" x2="49.3126" y2="29.7874">
	<stop  offset="0" style="stop-color:#878787"/>
	<stop  offset="1" style="stop-color:#F2F2F2"/>
</linearGradient>
<path class="st0" d="M49.3,30.2c-0.2,10.6-9,19.1-19.6,18.9C19,48.8,10.6,40,10.8,29.4c0.2-10.6,9-19.1,19.6-18.9
	C41,10.7,49.5,19.5,49.3,30.2z"/>
<g>
	<defs>
		<path id="SVGID_2_" d="M48.4,29.5c-0.2,10.4-8.8,18.6-19.2,18.4c-10.4-0.2-18.7-8.8-18.5-19.1C11,18.4,19.6,10.1,30,10.3
			C40.4,10.5,48.7,19.1,48.4,29.5z"/>
	</defs>
	<clipPath id="SVGID_3_">
		<use xlink:href="#SVGID_2_"  style="overflow:visible;"/>
	</clipPath>
	
		<linearGradient id="SVGID_4_" gradientUnits="userSpaceOnUse" x1="-961.5022" y1="-983.4756" x2="-945.2689" y2="-967.6113" gradientTransform="matrix(0.9998 1.880000e-02 -1.870000e-02 0.9998 971.1725 1029.7898)">
		<stop  offset="0" style="stop-color:#878787"/>
		<stop  offset="1" style="stop-color:#F2F2F2"/>
	</linearGradient>
	<polygon class="st1" points="36.6,51.5 21.3,35.1 35.8,21.5 51.1,38 	"/>
</g>
<path class="st2" d="M48.4,29.5c-0.2,10.4-8.8,18.6-19.2,18.4c-10.4-0.2-18.7-8.8-18.5-19.1C11,18.4,19.6,10.1,30,10.3
	C40.4,10.5,48.7,19.1,48.4,29.5z"/>
<g>
	<g>
		<g>
			<g>
				<polygon class="st3" points="48.2,29.3 48.2,29.4 46.5,29.4 46.5,29.3 				"/>
				<path class="st3" d="M48.3,29.5l0-0.2l-1.8,0l0,0.2L48.3,29.5z M48.2,29.4l-1.7,0L48.2,29.4z"/>
			</g>
			<g>
				<polygon class="st3" points="48.1,26.8 48.1,26.9 46.4,27.1 46.4,27 				"/>
				<path class="st3" d="M48.1,26.9l0-0.2L46.3,27l0,0.2L48.1,26.9z M48.1,26.8l-1.7,0.2L48.1,26.8z"/>
			</g>
			<g>
				<polygon class="st3" points="47.6,24.3 47.6,24.4 45.9,24.8 45.9,24.8 				"/>
				<polygon class="st3" points="45.9,24.9 45.9,24.7 47.6,24.3 47.6,24.4 				"/>
			</g>
			<g>
				<polygon class="st3" points="46.7,21.9 46.8,22 45.2,22.7 45.2,22.6 				"/>
				<path class="st3" d="M46.8,22l-0.1-0.2l-1.6,0.7l0.1,0.1L46.8,22z M46.7,22l-1.5,0.7L46.7,22z"/>
			</g>
			<g>
				<polygon class="st3" points="45.6,19.6 45.7,19.8 42.8,21.5 42.7,21.4 				"/>
			</g>
			<g>
				<polygon class="st3" points="44,17.4 44,17.5 42.7,18.6 42.6,18.5 				"/>
				<path class="st3" d="M44.1,17.5L44,17.4l-1.4,1.1l0.1,0.1L44.1,17.5z M44,17.5l-1.3,1.1L44,17.5z"/>
			</g>
			<g>
				<polygon class="st3" points="42.2,15.6 42.3,15.7 41.1,16.9 41.1,16.9 				"/>
				
					<rect x="41.6" y="15.4" transform="matrix(0.736 0.6769 -0.6769 0.736 22.0047 -23.9101)" class="st3" width="0.2" height="1.8"/>
			</g>
			<g>
				<polygon class="st3" points="40.2,14 40.3,14.1 39.3,15.5 39.2,15.5 				"/>
				<polygon class="st3" points="39.3,15.5 39.2,15.5 40.2,14 40.3,14.1 				"/>
			</g>
			<g>
				<polygon class="st3" points="38,12.8 38.1,12.8 37.3,14.3 37.3,14.3 				"/>
				<polygon class="st3" points="37.4,14.4 37.2,14.3 38,12.7 38.2,12.8 				"/>
			</g>
			<g>
				<polygon class="st3" points="35.6,11.8 35.8,11.8 34.7,15 34.6,14.9 				"/>
			</g>
			<g>
				<polygon class="st3" points="33,11.1 33.1,11.2 32.8,12.9 32.7,12.9 				"/>
				<path class="st3" d="M33.1,11.1l-0.2,0l-0.3,1.8l0.2,0L33.1,11.1z M33,11.2l-0.3,1.7l0,0L33,11.2z"/>
			</g>
			<g>
				<polygon class="st3" points="30.5,10.9 30.5,10.9 30.5,12.6 30.4,12.6 				"/>
				<path class="st3" d="M30.6,10.9l-0.2,0l0,1.8l0.2,0L30.6,10.9z M30.5,10.9l-0.1,1.7l0,0L30.5,10.9z"/>
			</g>
			<g>
				<polygon class="st3" points="27.9,11 28,11 28.2,12.7 28.1,12.7 				"/>
				<polygon class="st3" points="28.2,12.7 28.1,12.8 27.9,11 28.1,11 				"/>
			</g>
			<g>
				<polygon class="st3" points="25.4,11.5 25.5,11.5 25.9,13.1 25.9,13.1 				"/>
				<path class="st3" d="M25.6,11.4l-0.2,0l0.4,1.7l0.2,0L25.6,11.4z M25.5,11.5l0.4,1.6L25.5,11.5z"/>
			</g>
			<g>
				<polygon class="st3" points="23,12.3 23.1,12.2 24.4,15.3 24.3,15.4 				"/>
			</g>
			<g>
				<polygon class="st3" points="20.5,13.5 20.6,13.5 21.5,15 21.4,15 				"/>
				<polygon class="st3" points="21.6,15 21.4,15 20.5,13.5 20.7,13.4 				"/>
			</g>
			<g>
				<polygon class="st3" points="18.5,15 18.5,14.9 19.6,16.3 19.6,16.3 				"/>
				<path class="st3" d="M18.6,14.9L18.4,15l1.1,1.4l0.1-0.1L18.6,14.9z M18.5,15l1.1,1.3L18.5,15z"/>
			</g>
			<g>
				<polygon class="st3" points="16.6,16.7 16.7,16.7 18,17.8 17.9,17.9 				"/>
				<path class="st3" d="M16.7,16.6l-0.1,0.1l1.3,1.2l0.1-0.1L16.7,16.6z M16.7,16.7l1.2,1.1L16.7,16.7z"/>
			</g>
			<g>
				
					<rect x="15.7" y="18.3" transform="matrix(-0.5671 0.8236 -0.8236 -0.5671 40.465 17.03)" class="st3" width="0.1" height="1.7"/>
				<polygon class="st3" points="16.5,19.6 16.4,19.7 15,18.7 15.1,18.6 				"/>
			</g>
			<g>
				<polygon class="st3" points="13.7,20.9 13.8,20.7 16.7,22.3 16.7,22.4 				"/>
			</g>
			<g>
				<polygon class="st3" points="12.7,23.4 12.7,23.3 14.3,23.9 14.3,24 				"/>
				<path class="st3" d="M14.4,23.9c0,0-0.1,0.2-0.1,0.2l-1.7-0.5l0.1-0.2L14.4,23.9z"/>
			</g>
			<g>
				<polygon class="st3" points="12.1,25.9 12.1,25.8 13.8,26.1 13.8,26.2 				"/>
				<path class="st3" d="M12.1,25.8l0,0.2l1.7,0.3l0-0.2L12.1,25.8z M12.1,25.8l1.7,0.3L12.1,25.8z"/>
			</g>
			<g>
				<polygon class="st3" points="11.8,28.4 11.8,28.3 13.5,28.4 13.5,28.5 				"/>
				<polygon class="st3" points="13.5,28.4 13.5,28.5 11.8,28.4 11.8,28.3 				"/>
			</g>
			<g>
				<polygon class="st3" points="11.8,30.9 11.8,30.8 13.6,30.7 13.6,30.8 				"/>
				<polygon class="st3" points="13.6,30.6 13.6,30.8 11.8,31 11.8,30.8 				"/>
			</g>
			<g>
				<polygon class="st3" points="12.3,33.5 12.2,33.3 15.5,32.5 15.5,32.7 				"/>
			</g>
			<g>
				<polygon class="st3" points="13.1,36.1 13.1,36 14.7,35.3 14.7,35.4 				"/>
				<path class="st3" d="M13.1,36l0.1,0.2l1.6-0.7l-0.1-0.1L13.1,36z M13.1,36l1.6-0.6L13.1,36z"/>
			</g>
			<g>
				<polygon class="st3" points="14.3,38.3 14.2,38.2 15.7,37.4 15.8,37.5 				"/>
				<path class="st3" d="M14.2,38.2l0.1,0.2l1.5-0.9l-0.1-0.1L14.2,38.2z M14.3,38.3l1.4-0.8l0,0L14.3,38.3z"/>
			</g>
			<g>
				<polygon class="st3" points="15.7,40.4 15.6,40.4 17,39.3 17,39.4 				"/>
				<path class="st3" d="M15.6,40.3c0,0,0.1,0.1,0.1,0.1l1.4-1.1c0,0-0.1-0.1-0.1-0.1L15.6,40.3z M15.7,40.4l1.3-1L15.7,40.4z"/>
			</g>
			<g>
				<polygon class="st3" points="17.4,42.3 17.3,42.2 18.5,41 18.6,41 				"/>
				<path class="st3" d="M17.3,42.2l0.1,0.1l1.2-1.3l-0.1-0.1L17.3,42.2z M17.4,42.2l1.2-1.2L17.4,42.2z"/>
			</g>
			<g>
				<polygon class="st3" points="19.4,44 19.2,43.8 21.2,41.2 21.3,41.2 				"/>
			</g>
			<g>
				<polygon class="st3" points="21.7,45.3 21.7,45.3 22.4,43.8 22.5,43.8 				"/>
				<path class="st3" d="M21.6,45.3l0.2,0.1l0.8-1.6l-0.1-0.1L21.6,45.3z M21.7,45.3l0.8-1.5L21.7,45.3z"/>
			</g>
			<g>
				<polygon class="st3" points="24.1,46.3 24,46.3 24.5,44.7 24.6,44.7 				"/>
				<polygon class="st3" points="24.5,44.6 24.7,44.7 24.1,46.4 23.9,46.3 				"/>
			</g>
			<g>
				<polygon class="st3" points="26.5,47 26.4,47 26.8,45.3 26.8,45.3 				"/>
				<path class="st3" d="M26.4,47l0.2,0l0.3-1.7l-0.2,0L26.4,47z M26.5,47l0.3-1.6l0,0L26.5,47z"/>
			</g>
			<g>
				<polygon class="st3" points="29,47.3 28.9,47.3 29,45.6 29.1,45.6 				"/>
				<path class="st3" d="M28.9,47.3l0.2,0l0.1-1.8l-0.2,0L28.9,47.3z M29,47.3l0.1-1.7l0,0L29,47.3z"/>
			</g>
			<g>
				<path class="st3" d="M31.6,47.3c0,0-0.2,0-0.2,0L31.2,44c0,0,0.1,0,0.1,0L31.6,47.3z"/>
			</g>
			<g>
				<polygon class="st3" points="34.3,46.8 34.2,46.8 33.8,45.1 33.9,45.1 				"/>
				<polygon class="st3" points="33.8,45.1 33.9,45.1 34.4,46.8 34.2,46.9 				"/>
			</g>
			<g>
				<polygon class="st3" points="36.7,46 36.6,46.1 36,44.5 36.1,44.4 				"/>
				<path class="st3" d="M36.6,46.1l0.2-0.1l-0.7-1.6l-0.1,0L36.6,46.1z M36.7,46l-0.6-1.6L36.7,46z"/>
			</g>
			<g>
				<polygon class="st3" points="39,44.9 38.9,45 38.1,43.5 38.2,43.4 				"/>
				<path class="st3" d="M38.9,45l0.1-0.1l-0.9-1.5L38,43.5L38.9,45z M39,44.9l-0.8-1.5L39,44.9z"/>
			</g>
			<g>
				<polygon class="st3" points="41.1,43.5 41.1,43.6 40,42.2 40.1,42.2 				"/>
				<polygon class="st3" points="40,42.2 40.1,42.1 41.2,43.5 41,43.6 				"/>
			</g>
			<g>
				<polygon class="st3" points="43.1,41.8 42.9,42 40.6,39.6 40.7,39.5 				"/>
			</g>
			<g>
				<polygon class="st3" points="44.8,39.8 44.8,39.8 43.4,38.8 43.4,38.7 				"/>
				<path class="st3" d="M44.7,39.9l0.1-0.1l-1.4-1l-0.1,0.1L44.7,39.9z M44.8,39.8l-1.4-1L44.8,39.8z"/>
			</g>
			<g>
				<polygon class="st3" points="46.1,37.6 46.1,37.7 44.6,36.9 44.6,36.8 				"/>
				<polygon class="st3" points="44.5,36.9 44.6,36.7 46.2,37.6 46.1,37.7 				"/>
			</g>
			<g>
				<polygon class="st3" points="47.2,35.3 47.1,35.3 45.5,34.8 45.5,34.7 				"/>
				<polygon class="st3" points="45.5,34.8 45.5,34.6 47.2,35.2 47.1,35.4 				"/>
			</g>
			<g>
				<polygon class="st3" points="47.8,32.8 47.8,32.9 46.1,32.6 46.2,32.5 				"/>
				<polygon class="st3" points="46.1,32.6 46.1,32.4 47.9,32.8 47.8,33 				"/>
			</g>
			<g>
				<polygon class="st3" points="48.2,30.3 48.2,30.4 44.9,30.2 44.9,30.1 				"/>
			</g>
		</g>
		<g>
			<path class="st3" d="M43.4,30.1l0-0.1c-0.1,0-0.1-0.1-0.2-0.2c-0.1-0.1-0.1-0.2-0.1-0.3l-0.2,0c0,0.1,0,0.1,0.1,0.2
				c0,0.1,0.1,0.2,0.1,0.2l-1.1-0.1l0,0.2L43.4,30.1z"/>
		</g>
		<g>
			<path class="st3" d="M38.7,37.5c0,0,0,0.1,0,0.1c0,0,0,0.1,0,0.3c0,0.2-0.1,0.3-0.1,0.4c0,0.1,0,0.2,0,0.2c0,0.1,0,0.1,0.1,0.2
				c0.1,0.1,0.2,0.1,0.3,0.1c0.1,0,0.3-0.1,0.4-0.2c0.1-0.1,0.2-0.3,0.2-0.4c0-0.1,0-0.2-0.1-0.3l-0.2,0.2c0.1,0.1,0.1,0.1,0.1,0.2
				c0,0.1-0.1,0.2-0.1,0.3c-0.1,0.1-0.2,0.1-0.2,0.1c-0.1,0-0.1,0-0.2-0.1c0,0-0.1-0.1-0.1-0.2c0-0.1,0-0.3,0.1-0.5
				c0-0.1,0-0.3,0-0.3c0-0.1,0-0.2,0-0.2c0,0,0-0.1-0.1-0.1c0,0-0.2,0.2-0.4,0.4c-0.1,0.1-0.2,0.2-0.3,0.3C38,37.9,38,38,38,38
				l0.1,0.1c0,0,0.2-0.1,0.3-0.3C38.6,37.7,38.7,37.5,38.7,37.5z"/>
		</g>
		<g>
			<path class="st3" d="M31.2,41.1C31.1,41,31,41,30.8,41c-0.2,0-0.3,0-0.4,0.1c-0.1,0.1-0.2,0.2-0.2,0.3c0,0.1,0,0.2,0.1,0.2
				c0.1,0.1,0.2,0.1,0.3,0.1c-0.1,0-0.1,0.1-0.2,0.1c0,0.1-0.1,0.1-0.1,0.2c0,0.1,0,0.1,0.1,0.2c0,0.1,0.1,0.1,0.2,0.1
				c0.1,0,0.2,0,0.3,0c0.2,0,0.3-0.1,0.4-0.1c0.1-0.1,0.1-0.2,0.2-0.3l-0.2,0c0,0.1,0,0.2-0.1,0.2c-0.1,0.1-0.1,0.1-0.2,0.1
				c-0.1,0-0.2,0-0.2-0.1c-0.1,0-0.1-0.1-0.1-0.2c0-0.1,0-0.2,0.1-0.2c0.1,0,0.2-0.1,0.3-0.1c0,0,0,0,0,0l0-0.1c-0.1,0-0.1,0-0.2,0
				c-0.1,0-0.2,0-0.3-0.1c-0.1,0-0.1-0.1-0.1-0.2c0-0.1,0-0.2,0.1-0.2c0.1-0.1,0.1-0.1,0.2-0.1c0.1,0,0.2,0,0.2,0.1
				c0.1,0,0.1,0.1,0.1,0.2l0.2,0C31.4,41.2,31.3,41.1,31.2,41.1z"/>
		</g>
		<g>
			<path class="st3" d="M22.7,38.6l-0.2,0.3l-0.2-0.1l-0.1,0.1l0.2,0.1l-0.6,0.7l0.2,0.1c0,0,0.3,0,0.6-0.1c0.3-0.1,0.6-0.2,0.6-0.2
				l0.1-0.1c0,0-0.2-0.1-0.3-0.2c-0.1-0.1-0.2-0.1-0.2-0.2c-0.1,0-0.1-0.1-0.1-0.1l0.2-0.3L22.7,38.6z M23,39.4c0,0-0.2,0.1-0.4,0.1
				c-0.2,0-0.4,0.1-0.4,0.1l0.4-0.5c0,0,0.1,0.1,0.2,0.2C22.9,39.3,23,39.4,23,39.4z"/>
		</g>
		<g>
			<path class="st3" d="M18.4,32.2c0-0.1,0.1-0.2,0-0.4c0-0.2-0.1-0.3-0.3-0.4c-0.1-0.1-0.2-0.1-0.4-0.1c-0.1,0-0.2,0.1-0.3,0.2
				c-0.1,0.1-0.1,0.3,0,0.4c0,0.1,0.1,0.2,0.2,0.3l-0.4,0L17,31.6l-0.2,0l0.2,0.9l0.8,0l0-0.2c0,0-0.1-0.1-0.1-0.1
				c0-0.1-0.1-0.1-0.1-0.2c0-0.1,0-0.2,0-0.3c0-0.1,0.1-0.1,0.2-0.1c0.1,0,0.2,0,0.3,0.1c0.1,0.1,0.1,0.1,0.2,0.2c0,0.1,0,0.2,0,0.2
				c0,0.1-0.1,0.1-0.2,0.2l0.1,0.2C18.2,32.4,18.3,32.3,18.4,32.2z"/>
		</g>
		<g>
			<path class="st3" d="M18.3,22.7c-0.1,0.1-0.2,0.1-0.2,0.3C18,23.1,18,23.3,18,23.4c0.1,0.2,0.2,0.3,0.5,0.4
				c0.2,0.1,0.4,0.1,0.6,0.1c0.1-0.1,0.3-0.1,0.3-0.3c0-0.1,0.1-0.2,0.1-0.3c0-0.1,0-0.2-0.1-0.3c0-0.1-0.1-0.1-0.2-0.2
				c-0.1-0.1-0.3-0.1-0.4,0c-0.1,0-0.2,0.1-0.3,0.3c0,0.1-0.1,0.2-0.1,0.2c0,0.1,0,0.2,0,0.2c-0.1-0.1-0.2-0.1-0.3-0.2
				c-0.1-0.1-0.1-0.1-0.1-0.2c0-0.1,0-0.1,0-0.2c0-0.1,0.1-0.1,0.2-0.2c0,0,0.1,0,0.2,0c0,0,0.1-0.2,0.1-0.2
				C18.5,22.6,18.4,22.6,18.3,22.7z M18.6,23.5c0-0.1,0-0.2,0-0.3c0-0.1,0.1-0.2,0.2-0.2c0.1,0,0.2,0,0.3,0c0.1,0,0.1,0.1,0.2,0.2
				c0,0.1,0,0.2,0,0.2c0,0.1-0.1,0.1-0.1,0.1c0,0-0.1,0.1-0.2,0.1c-0.1,0-0.1,0-0.2,0C18.7,23.7,18.7,23.6,18.6,23.5z"/>
		</g>
		<g>
			<path class="st3" d="M25.2,16.8c-0.1,0.1-0.1,0.3-0.2,0.5c0,0.2,0,0.4,0,0.5c0,0.2,0.1,0.3,0.1,0.4l0.2-0.1
				c0-0.1-0.1-0.3-0.1-0.4c0-0.2,0-0.4,0.1-0.6c0-0.2,0.1-0.3,0.2-0.5l-0.1-0.1c0,0-0.1,0-0.2,0.1c-0.1,0-0.2,0.1-0.4,0.1
				c-0.3,0.1-0.5,0.3-0.5,0.3l0.1,0.1c0,0,0.2-0.1,0.4-0.2c0.1-0.1,0.2-0.1,0.3-0.1C25.2,16.8,25.2,16.8,25.2,16.8z"/>
		</g>
		<g>
			<path class="st3" d="M33.5,17c-0.1,0-0.1,0.1-0.1,0.2c0,0.1,0,0.2,0.1,0.3c0.1,0.1,0.2,0.2,0.3,0.2c0.2,0.1,0.3,0.1,0.4,0
				c0.1,0,0.2-0.1,0.2-0.2c0-0.1,0-0.2,0-0.2c0-0.1-0.1-0.2-0.2-0.2c0.1,0,0.2,0,0.2,0c0.1,0,0.1-0.1,0.1-0.1c0-0.1,0-0.2,0-0.3
				c-0.1-0.1-0.2-0.2-0.3-0.2c-0.2,0-0.3-0.1-0.4,0c-0.1,0-0.2,0.1-0.2,0.2c0,0.1,0,0.1,0,0.2c0,0.1,0.1,0.1,0.2,0.2
				C33.6,16.9,33.5,17,33.5,17z M33.7,17.1c0.1,0,0.2,0,0.3,0c0.1,0,0.2,0.1,0.2,0.2c0,0.1,0.1,0.2,0,0.2c0,0.1-0.1,0.1-0.2,0.2
				c-0.1,0-0.2,0-0.3,0c-0.1,0-0.1,0-0.2-0.1c0,0-0.1-0.1-0.1-0.1c0,0,0-0.1,0-0.1C33.6,17.2,33.6,17.1,33.7,17.1z M33.9,16.5
				c0.1,0,0.1,0,0.2,0c0.1,0,0.1,0.1,0.2,0.1c0,0.1,0.1,0.1,0,0.2c0,0.1-0.1,0.1-0.1,0.1c-0.1,0-0.1,0-0.2,0c-0.1,0-0.1-0.1-0.2-0.1
				c0-0.1,0-0.1,0-0.2C33.8,16.6,33.8,16.5,33.9,16.5z"/>
		</g>
		<g>
			<path class="st3" d="M40.1,22.7c0,0.1,0,0.2,0.1,0.3c0.1,0.1,0.1,0.2,0.2,0.2c0.1,0.1,0.2,0.1,0.3,0.1c0.1,0,0.3-0.1,0.4-0.1
				c0.2-0.1,0.3-0.2,0.3-0.3c0.1-0.1,0.1-0.2,0.1-0.3c0-0.1,0-0.2-0.1-0.3c-0.1-0.1-0.2-0.2-0.3-0.3c-0.1-0.1-0.3,0-0.4,0.1
				c-0.1,0.1-0.2,0.2-0.2,0.3c0,0.1,0,0.3,0.1,0.4c0,0.1,0.1,0.1,0.2,0.2C40.9,23,41,23,41,23c0,0,0,0,0,0c-0.1,0-0.1,0.1-0.2,0.1
				c-0.1,0-0.1,0-0.2,0c-0.1,0-0.1,0-0.1,0c0,0-0.1-0.1-0.1-0.1c0-0.1-0.1-0.1,0-0.2c0-0.1,0-0.1,0.1-0.2l-0.1-0.2
				C40.2,22.5,40.1,22.6,40.1,22.7z M41,22.9c-0.1,0-0.1-0.1-0.2-0.2c-0.1-0.1-0.1-0.2-0.1-0.3c0-0.1,0.1-0.2,0.1-0.2
				c0.1-0.1,0.2-0.1,0.3,0c0.1,0,0.2,0.1,0.2,0.2c0,0.1,0.1,0.2,0,0.3c0,0.1-0.1,0.2-0.2,0.2C41.2,22.9,41.1,22.9,41,22.9z"/>
		</g>
	</g>
</g>
<path class="st4" d="M40.7,28.9c-0.1,6.1-5.2,11-11.3,10.8c-6.1-0.1-11-5.2-10.9-11.3c0.1-6.1,5.2-11,11.3-10.8
	C36,17.8,40.9,22.8,40.7,28.9z"/>
<polyline class="st3" points="40.5,24.5 42.8,25 41.2,26.7 "/>
</svg>
