<?xml version="1.0" encoding="utf-8"?>
<!-- Generator: Adobe Illustrator 19.0.0, SVG Export Plug-In . SVG Version: 6.00 Build 0)  -->
<svg version="1.1" id="图层_1" xmlns="http://www.w3.org/2000/svg" xmlns:xlink="http://www.w3.org/1999/xlink" x="0px" y="0px"
	 viewBox="0 0 60 60" style="enable-background:new 0 0 60 60;" xml:space="preserve">
<style type="text/css">
	.st0{opacity:0.4;fill:#1F2937;}
	.st1{fill:#F2A6BD;}
	.st2{fill:#DB5F88;}
</style>
<path class="st0" d="M10.5,40.1l38.8,0.1c1.9,0,3.4-1.5,3.4-3.4l0-13.8c0-1.9-1.5-3.4-3.4-3.4l-38.8-0.1c-1.9,0-3.4,1.5-3.4,3.4
	l0,13.8C7.1,38.6,8.6,40.1,10.5,40.1z"/>
<path class="st1" d="M50.3,19.8c1.5,0,2.6,1.2,2.6,2.7l0,13.8c0,1.5-1.2,2.6-2.7,2.6l-38.8-0.1c-1.5,0-2.6-1.2-2.6-2.7l0-13.8
	c0-1.5,1.2-2.6,2.7-2.6L50.3,19.8z"/>
<path class="st2" d="M10.7,38.1c-1.1,0-1.9-0.9-1.9-1.9l0-13.8c0-1.1,0.9-1.9,1.9-1.9l38.8,0.1c1.1,0,1.9,0.9,1.9,1.9l0,13.8
	c0,1.1-0.9,1.9-1.9,1.9L10.7,38.1L10.7,38.1z M10.7,39.5l38.8,0.1c1.9,0,3.4-1.5,3.4-3.4l0-13.8c0-1.9-1.5-3.4-3.4-3.4L10.8,19
	c-1.9,0-3.4,1.5-3.4,3.4l0,13.8C7.4,38,8.9,39.5,10.7,39.5L10.7,39.5z"/>
<path class="st2" d="M46.7,38.1c-0.9-1.2-0.4-3.1,1.1-4.2c1.5-1.2,3.5-1.1,4.4,0c0.9,1.2,0.4,3.1-1.1,4.2
	C49.5,39.3,47.6,39.3,46.7,38.1z"/>
<ellipse transform="matrix(0.7064 0.7079 -0.7079 0.7064 30.5119 -28.2642)" class="st2" cx="49.3" cy="22.6" rx="3.5" ry="2.7"/>
<path class="st2" d="M14,38.1c0.9-1.2,0.4-3.1-1.1-4.2c-1.5-1.2-3.5-1.2-4.4,0c-0.9,1.2-0.4,3.1,1.1,4.2
	C11.1,39.3,13.1,39.3,14,38.1z"/>
<ellipse transform="matrix(-0.7095 0.7048 -0.7048 -0.7095 35.4501 30.5486)" class="st2" cx="11.4" cy="22.6" rx="3.5" ry="2.7"/>
<path class="st2" d="M29.6,36c3.7,0,6.7-3,6.8-6.7c0-3.7-3-6.7-6.7-6.7c-3.7,0-6.7,3-6.7,6.7C22.9,33,25.9,36,29.6,36z M29.3,25.7
	l0-0.6c0-0.4,0.2-0.7,0.4-0.7c0.2,0,0.4,0.3,0.4,0.6c0,0.4,0.3,0.7,0.7,0.7c0,0,0.8,0.1,1.3,0.5L32,26.4c-0.1,0.3-0.5,0.5-0.8,0.3
	c0,0-0.5-0.3-1.2-0.3c-0.9,0-1.5,0.5-1.5,1.2c0,0.7,0.5,1.1,1.4,1.5c1.3,0.5,2.1,1.1,2.1,2.2c0,1-0.8,1.8-1.9,2l0,0.6
	c0,0.4-0.2,0.7-0.4,0.7c-0.2,0-0.4-0.3-0.4-0.6c0-0.3-0.3-0.7-0.7-0.7c0,0-0.6-0.1-1-0.3l0.1-0.2c0.1-0.3,0.5-0.5,0.8-0.3
	c0,0,0.2,0.1,1,0.1c1,0,1.3-0.6,1.3-1.1c0-0.7-0.5-1-1.6-1.5c-1.3-0.5-2-1.2-2-2.3C27.3,26.8,28,25.9,29.3,25.7z"/>
</svg>
