<?xml version="1.0" encoding="utf-8"?>
<!-- Generator: Adobe Illustrator 22.0.0, SVG Export Plug-In . SVG Version: 6.00 Build 0)  -->
<svg version="1.1" id="图层_1" xmlns="http://www.w3.org/2000/svg" xmlns:xlink="http://www.w3.org/1999/xlink" x="0px" y="0px"
	 viewBox="0 0 600 600" style="enable-background:new 0 0 600 600;" xml:space="preserve">
<style type="text/css">
	.st0{clip-path:url(#SVGID_2_);fill:#E5240F;}
</style>
<g>
	<defs>
		<rect id="SVGID_1_" width="600" height="600"/>
	</defs>
	<clipPath id="SVGID_2_">
		<use xlink:href="#SVGID_1_"  style="overflow:visible;"/>
	</clipPath>
	<path class="st0" d="M159.4,395.6L130.7,453c0,0-144.9-66.4-108.7-202.3c36.2-135.9,246.1-155.5,298.9-151
		c52.8,4.5,258.1,24.2,261.2,206.8c0,0-3,43.8-16.6,54.3l-107.2,24.2c0,0,164.2-175.1-108.7-220.4c0,0-247.9-28.9-264.2,143.4
		C85.4,308.1,97.5,366.9,159.4,395.6"/>
	<path class="st0" d="M280,209.9h143.6L253,401.7c0,0,149.9,27.2,290.8-15.1c0,0-78,98.1-222.9,99.6C176,487.7,148.8,453,148.8,453
		L280,209.9z"/>
	<path class="st0" d="M425.1,244.7h69.4c0,0-111.7,155.5-202.3,147.9L425.1,244.7z"/>
</g>
</svg>
