<?xml version="1.0" encoding="utf-8"?>
<!-- Generator: Adobe Illustrator 22.0.0, SVG Export Plug-In . SVG Version: 6.00 Build 0)  -->
<svg version="1.1" id="图层_1" xmlns="http://www.w3.org/2000/svg" xmlns:xlink="http://www.w3.org/1999/xlink" x="0px" y="0px"
	 viewBox="0 0 60 60" style="enable-background:new 0 0 60 60;" xml:space="preserve">
<style type="text/css">
	.st0{fill:#464D57;}
	.st1{fill:#BAC1C3;}
	.st2{fill:#4C6170;}
	.st3{fill:#F97B62;}
	.st4{fill:#D0E7EF;}
	.st5{fill:#BECED3;}
	.st6{fill:#2E4652;}
</style>
<g id="XMLID_1_">
</g>
<g id="XMLID_2_">
</g>
<g id="XMLID_3_">
</g>
<g id="XMLID_4_">
</g>
<g id="XMLID_5_">
</g>
<rect x="19.4" y="14.4" class="st0" width="0.5" height="1.7"/>
<rect x="17" y="18.5" class="st1" width="3.9" height="2.3"/>
<polygon class="st2" points="26,36 24.2,38.4 24.2,38.4 24.2,38.5 21.2,35.8 18.3,33.4 11.8,27.7 10.3,26.4 9.5,25.7 7.9,24.3 
	10.6,21.2 11,20.8 11.2,21 15.9,25.7 16.1,26 16.2,26 16.3,26.2 16.5,26.3 17.3,27.2 17.4,27.3 21,30.9 24.3,34.3 24.4,34.4 
	25.4,35.4 "/>
<path class="st0" d="M21.2,35.9c0,4.6-3.7,8.3-8.3,8.3c-1.1,0-2.2-0.2-3.2-0.6c-2-0.8-3.7-2.5-4.5-4.5c-0.4-1-0.6-2.1-0.6-3.2
	c0-1.3,0.3-2.5,0.8-3.6c1.2-2.5,3.6-4.3,6.5-4.7c0.3,0,0.7-0.1,1-0.1c1.6,0,3.1,0.4,4.3,1.2c1.2,0.7,2.2,1.8,2.9,3
	c0.4,0.7,0.7,1.4,0.9,2.1C21.1,34.5,21.2,35.2,21.2,35.9C21.2,35.9,21.2,35.9,21.2,35.9z"/>
<path class="st3" d="M17.4,35.9c0,2.5-2,4.5-4.5,4.5c-2.5,0-4.5-2-4.5-4.5c0-2.5,2-4.5,4.5-4.5C15.3,31.4,17.4,33.4,17.4,35.9z"/>
<path class="st4" d="M18,28.8c-0.1-0.2-0.2-0.3-0.3-0.5l-2.3-3.5l0,0L18,28.8z"/>
<path class="st1" d="M21.2,30.7L21,30.9l-0.9,0.9l-0.4,0.4l-1.3,1.2l-1.2,1.1l-1.5,1.4l-0.2,0.2l-1,0.9h-3.3c0,0,1.1-1.7,1.6-3.4
	c0,0,0,0,0,0c0.2-0.7,0.4-1.5,0.3-2.1c-0.1-0.6-0.4-1.2-1-1.5c0,0-1.3-1.2-3.8,0.7c0,0-1.7,1.9-3,1.7c-0.3,0-0.6-0.2-0.8-0.5
	c0,0,1.6-3.8,5.8-5.4c1.3-0.5,2.7-0.8,4.5-0.8c0.3,0,0.7,0,1.1,0.1c0,0,0.1,0,0.1,0c0,0,0,0,0.1,0c0.2,0,0.3,0,0.5,0.1
	c0.1,0,0.1,0,0.2,0l0.2,0.2v0l1.2,1.3L21.2,30.7z"/>
<polygon class="st0" points="31.7,34.6 30.2,35.2 29.2,35.2 25.9,35.4 25.4,35.4 25,35.4 24.4,34.4 24.3,34.3 19.8,27.3 18.9,25.8 
	18.9,25.8 21.5,27 21.6,27.2 26,34.4 26.2,34.6 "/>
<path class="st0" d="M55.3,35.9c0,4.6-3.7,8.3-8.3,8.3c-4.6,0-8.3-3.7-8.3-8.3c0-4.6,3.7-8.3,8.3-8.3C51.5,27.6,55.3,31.3,55.3,35.9
	z"/>
<path class="st3" d="M51.5,35.9c0,2.5-2,4.5-4.5,4.5c-2.5,0-4.5-2-4.5-4.5c0-2.5,2-4.5,4.5-4.5C49.4,31.4,51.5,33.4,51.5,35.9z"/>
<polygon class="st4" points="46.9,34.4 46.9,38.5 24.3,38.5 24.2,38.4 21.6,34.4 "/>
<polygon class="st4" points="27,36.9 24.3,38.5 15.4,26.4 18.2,24.8 "/>
<g>
	<path class="st5" d="M50.1,36.3c0,1.6-1.3,2.8-2.8,2.8c-1.6,0-2.8-1.3-2.8-2.8c0-1.6,1.3-2.8,2.8-2.8
		C48.8,33.5,50.1,34.8,50.1,36.3z"/>
	<path class="st4" d="M49.9,36.1c0,1.5-1.2,2.6-2.6,2.6c-1.5,0-2.6-1.2-2.6-2.6c0-1.5,1.2-2.6,2.6-2.6
		C48.7,33.5,49.9,34.7,49.9,36.1z"/>
</g>
<g>
	<path class="st5" d="M15.7,36.3c0,1.6-1.3,2.8-2.8,2.8c-1.6,0-2.8-1.3-2.8-2.8c0-1.6,1.3-2.8,2.8-2.8
		C14.4,33.5,15.7,34.8,15.7,36.3z"/>
	<path class="st4" d="M15.5,36.1c0,1.5-1.2,2.6-2.6,2.6c-1.5,0-2.6-1.2-2.6-2.6c0-1.5,1.2-2.6,2.6-2.6
		C14.3,33.5,15.5,34.7,15.5,36.1z"/>
</g>
<path class="st4" d="M51.8,27.5L49.6,28l-7.3,1.8c-0.7,0.2-1.3,0.4-1.7,0.7c-1.8,1.2-1.9,3.4-1.9,3.7v1.6h-9.9l0.5-0.7l0.4-0.6
	l0.2-0.2l2.5-3.6v-3.2h0.9l0.5-1.2h1.6c0.4-0.5,0.9-0.9,1.5-1.1l6.2-1.5l1.1-0.3l6.3-1.5c0.3-0.1,0.7-0.1,1,0c1,0.2,1.9,1,2.1,2.1
	c0,0,0,0,0,0C54,25.7,53.2,27.2,51.8,27.5z"/>
<path class="st4" d="M18.2,24.8L16.8,26v0l-0.4,0.3l0,0l0,0l0,0L16,26l-0.6,0.4l0,0h0L15,25.9c-0.1-0.1-0.2-0.2-0.2-0.3
	c-1-1.1-2.9-1.4-4.3-0.6l-0.8,0.5l0,0l-0.2,0.1L9,26c-0.3,0.2-0.6,0.5-0.8,0.7c0,0-1.4,1.3-1.8,0.4c0,0-1.5-2.8,1.5-4.5
	c0,0,1.1-0.7,2.8-1.4c0.2-0.1,0.4-0.2,0.6-0.3c1-0.4,2.2-0.7,3.3-0.9l3.4,1.4l0.1,1.5l0,0.1l0,0.7l0,0.1L18.2,24.8z"/>
<polygon class="st4" points="21.6,27.3 17.4,27.3 17.3,27.2 16.8,26 16.8,26 16.7,25.6 14.5,20.1 20.9,20.1 21.6,27.2 "/>
<g>
	<path class="st0" d="M44.4,23.7c-0.1,0.2-0.2,0.4-0.2,0.6c-0.1,0.2-0.2,0.4-0.3,0.6c-0.1,0.2-0.3,0.4-0.4,0.5
		c-0.1,0.1-0.2,0.2-0.2,0.3c-2,2.1-5.6,3.2-8.5,3.7l-2.3,0.3l-0.5,0.1c-1.6,0.2-3.1-0.9-3.3-2.5c-0.2-1.6,0.9-3.1,2.5-3.3l10.6-1.3
		c0.7-0.1,1.4,0.1,1.9,0.4c0.1,0.1,0.2,0.2,0.3,0.2c0.1,0,0.1,0.1,0.2,0.2c0,0,0,0,0,0c0,0,0.1,0.1,0.1,0.1c0,0,0,0,0,0
		C44.3,23.6,44.3,23.6,44.4,23.7L44.4,23.7z"/>
	<path class="st6" d="M44.4,23.7L44.4,23.7c-0.1,0.2-0.2,0.4-0.2,0.6c-0.1,0.2-0.2,0.4-0.3,0.6c-0.1,0.2-0.3,0.4-0.4,0.5
		c-0.1,0.1-0.2,0.2-0.2,0.3c-2,2.1-5.6,3.2-8.5,3.7l-2.3,0.3l-0.5,0.1c-0.8,0.1-1.6-0.2-2.3-0.7c0.7-0.1,1.7-0.2,2.8-0.3
		c3.7-0.6,8.7-1.9,10.8-4.8c0.2-0.3,0.4-0.5,0.5-0.8c0.1,0.1,0.2,0.2,0.3,0.2c0.1,0,0.1,0.1,0.2,0.2c0,0,0,0,0,0
		c0,0,0.1,0.1,0.1,0.1C44.3,23.5,44.3,23.6,44.4,23.7C44.3,23.6,44.3,23.6,44.4,23.7z"/>
</g>
<path class="st3" d="M20.9,15.9v3.1h-4v0c-0.3,0-0.7-0.1-1.1-0.2c-0.9-0.3-1.4-0.6-1.8-1c-0.2-0.2-0.2-0.3-0.2-0.5
	c0-0.3,0.3-0.6,0.3-0.6c0.4-0.4,1.5-0.8,2.8-0.8c0,0,0.1,0,0.1,0v0H20.9z"/>
<path class="st0" d="M23.9,17.4c0,0.4-0.3,0.8-0.8,0.8h-3.9c-0.4,0-0.8-0.3-0.8-0.8c0-0.2,0.1-0.4,0.2-0.5c0.1-0.1,0.3-0.2,0.5-0.2
	h3.9C23.6,16.6,23.9,17,23.9,17.4z"/>
<path class="st1" d="M20.9,13.2v2.1c-0.1,0-0.2,0-0.3,0c-0.1,0-0.1,0-0.2,0v-2.1c0.1,0,0.1,0,0.2,0C20.7,13.1,20.8,13.1,20.9,13.2z"
	/>
<path class="st5" d="M19.6,23.5c0,0.4-0.4,0.8-0.8,0.8c-0.4,0-0.8-0.4-0.8-0.8c0-0.4,0.4-0.8,0.8-0.8C19.2,22.7,19.6,23,19.6,23.5z"
	/>
<path class="st4" d="M20.4,13.2v2.1c-0.2,0-0.4-0.1-0.6-0.2c-0.2-0.1-0.4-0.4-0.4-0.6c0-0.1,0-0.1,0-0.2
	C19.4,13.7,19.8,13.2,20.4,13.2z"/>
<path class="st3" d="M19.6,23.3c0,0.4-0.4,0.8-0.8,0.8c-0.4,0-0.8-0.4-0.8-0.8c0-0.4,0.4-0.8,0.8-0.8C19.2,22.5,19.6,22.9,19.6,23.3
	z"/>
</svg>
