<?xml version="1.0" encoding="utf-8"?>
<!-- Generator: Adobe Illustrator 22.0.0, SVG Export Plug-In . SVG Version: 6.00 Build 0)  -->
<svg version="1.1" id="图层_1" xmlns="http://www.w3.org/2000/svg" xmlns:xlink="http://www.w3.org/1999/xlink" x="0px" y="0px"
	 viewBox="0 0 60 60" style="enable-background:new 0 0 60 60;" xml:space="preserve">
<style type="text/css">
	.st0{fill:#D0E7EF;}
	.st1{fill:#4ECDDA;}
	.st2{fill:#FF8D89;}
</style>
<g id="XMLID_592_">
</g>
<g id="XMLID_595_">
</g>
<g id="XMLID_596_">
</g>
<g id="XMLID_597_">
</g>
<g id="XMLID_598_">
</g>
<g>
	<g>
		<g>
			<path class="st0" d="M47.9,30c0,9.9-8,17.9-17.9,17.9c-3.7,0-7.1-1.1-9.9-3c-2-1.3-3.7-3-5-5c-1.9-2.8-3-6.3-3-9.9
				c0-9.9,8-17.9,17.9-17.9c3.7,0,7.1,1.1,9.9,3c2,1.3,3.7,3,5,5C46.8,22.9,47.9,26.3,47.9,30z"/>
			<g>
				<path class="st1" d="M27.8,13.3c0.1,0,0.2,0,0.2,0c0,0,0-0.1,0-0.1C27.7,13.2,27.6,13.3,27.8,13.3
					C27.8,13.3,27.7,13.3,27.8,13.3z"/>
				<path class="st1" d="M28.7,13.3c0.2,0,0.2,0,0.2-0.2c-0.2,0-0.5,0.1-0.7,0.1C28.3,13.3,28.5,13.3,28.7,13.3
					C28.7,13.3,28.5,13.3,28.7,13.3z"/>
				<path class="st1" d="M26,13.6c0.1,0,0.1,0,0.2-0.1c-0.1,0-0.3,0.1-0.4,0.1C25.8,13.6,26,13.6,26,13.6
					C26.1,13.6,25.9,13.6,26,13.6z"/>
				<path class="st1" d="M27.1,13.5c0,0-0.4,0.1-0.3,0.1C26.9,13.5,27,13.5,27.1,13.5z"/>
				<path class="st1" d="M28.2,13.5c0,0,0.2,0,0.2,0c-0.4-0.1-0.8,0-1.1-0.1C27.6,13.5,27.9,13.5,28.2,13.5
					C28.3,13.5,27.9,13.5,28.2,13.5z"/>
				<path class="st1" d="M26.6,13.6c0.2-0.1-0.4,0-0.3,0C26.4,13.6,26.5,13.6,26.6,13.6C26.6,13.6,26.5,13.6,26.6,13.6z"/>
				<path class="st1" d="M28.8,13.6c-0.1,0-0.3,0-0.4-0.1C28.5,13.6,28.6,13.6,28.8,13.6C28.6,13.6,28.8,13.6,28.8,13.6z"/>
				<path class="st1" d="M27,13.8c0.1,0,0.2,0,0.3-0.1C27.4,13.6,26.8,13.7,27,13.8C27.1,13.8,26.9,13.8,27,13.8z"/>
				<path class="st1" d="M24.9,13.9c0.1-0.1,0.3-0.1,0.4-0.2c-0.1,0-0.7,0.2-0.6,0.2C24.8,14,24.9,14,24.9,13.9
					C25.1,13.9,24.9,14,24.9,13.9z"/>
				<path class="st1" d="M26.7,13.8c0-0.1,0-0.1,0-0.2c-0.1,0.1-0.1,0.1-0.1,0.2C26.7,13.9,26.7,13.9,26.7,13.8
					C26.7,13.8,26.7,13.9,26.7,13.8z"/>
				<path class="st1" d="M29.8,13.4c0.4,0,0.7,0.2,1.1,0.3c0.1,0,0.7,0,0.8,0.1c0,0.1-0.1,0.1-0.1,0.2c0.1,0,0.2,0.1,0.3,0.1
					c0,0-0.2,0-0.2,0c0,0.4,0.4-0.1,0.5,0c0,0,0,0.3,0.1,0.2c0,0-0.3,0-0.3,0.1c0,0.2,0.4,0,0.5,0c0.2,0.1,0.4,0.4,0.6,0.5
					c0.1,0,1.1,0.1,1.1,0.2c-0.1-0.1-0.2-0.2-0.3-0.3c0,0,0,0,0.1,0c-0.3-0.2-0.2-0.2-0.3-0.4c0,0,0,0,0,0c-0.1,0-0.1,0-0.2-0.1
					c0.1-0.1,0.2-0.1,0.4-0.1c-0.7-0.3-1.3-0.5-2-0.8c-0.2-0.1-0.5-0.2-0.7-0.3c-0.6,0-1.4,0.2-2,0.1C29.3,13.3,29.5,13.3,29.8,13.4
					C29.9,13.4,29.5,13.3,29.8,13.4z"/>
				<path class="st1" d="M33.4,13.7c0.2,0,0.3,0.1,0.4,0.1C33.9,13.8,33.6,13.7,33.4,13.7z"/>
				<path class="st1" d="M33.8,14c0,0,0.2,0,0.2,0c-0.1,0-0.7-0.3-0.7-0.3c0,0,0.1,0,0.1,0c-0.2-0.1-0.5-0.1-0.6-0.2
					c0,0,0.1,0,0.2,0c-0.3-0.1-0.5-0.1-0.8-0.2c0,0,0.1,0,0.1,0c-0.3-0.1-0.7-0.1-1-0.2c0.8,0.3,1.6,0.7,2.5,1
					C33.8,14.2,33.8,14.1,33.8,14C33.8,13.9,33.8,14.1,33.8,14z"/>
				<path class="st1" d="M24.8,14.3c0.2,0,1.7-0.3,1.2-0.5c0,0-0.5,0.1-0.6,0.1c-0.2,0-0.5,0.2-0.6,0.2c0.1,0,0.2,0,0.3,0
					c0,0-0.4,0.1-0.4,0.1C24.6,14.2,24.7,14.3,24.8,14.3C24.9,14.3,24.7,14.3,24.8,14.3z"/>
				<path class="st1" d="M31.2,13.8c0.1,0,0.3,0.1,0.3,0.1C31.4,13.8,31.3,13.8,31.2,13.8z"/>
				<path class="st1" d="M28.5,13.9C28.5,13.9,28.5,13.9,28.5,13.9C28.4,13.9,28.5,13.9,28.5,13.9z"/>
				<path class="st1" d="M28.3,13.7c0-0.1,0-0.1,0-0.1c-0.2-0.1-0.4,0.2-0.6,0.3c0,0,0.2-0.3,0.3-0.3c0.1,0-0.6,0.1-0.5,0.2
					c0.5,0.2,0.9,0,1.4,0.1c-0.4-0.2,0.4,0.2,0.4,0.1c0.2,0.2,0,0,0.3,0.1c0.2,0.1-0.4,0.3-0.5,0.3c-0.1,0-0.6-0.1-0.5,0.1
					c0.1,0.1,0.8,0,1,0.1c0,0-0.1,0-0.1,0c0.1,0,0.9,0.3,1,0.2c0.5-0.3-0.4-0.3-0.3-0.5c0.1-0.4,0.4,0,0.5,0
					c0.5-0.1-0.1-0.3-0.3-0.4c-0.3,0-0.4-0.2-0.4-0.2c-0.2,0-0.3,0-0.5,0c-0.3-0.1,0-0.1-0.1-0.1C29.1,13.7,28.4,13.8,28.3,13.7
					C28.2,13.7,28.3,13.8,28.3,13.7z"/>
				<path class="st1" d="M35.1,14.4c0.1,0,0.8,0.2,0.8,0.2c0-0.1-0.6-0.5-0.7-0.4c0,0,0,0.1,0,0.1C35.2,14.3,35.1,14.4,35.1,14.4
					C35.3,14.5,35.1,14.4,35.1,14.4z"/>
				<path class="st1" d="M35.1,14.4c0.1-0.1-0.2,0-0.2-0.1C35,14.4,35.1,14.4,35.1,14.4C35.1,14.4,35.1,14.4,35.1,14.4z"/>
				<path class="st1" d="M27.5,14.5c0,0-0.5,0.2-0.4,0.2C27.1,14.9,28.2,14.8,27.5,14.5C27.4,14.5,27.5,14.5,27.5,14.5z"/>
				<path class="st1" d="M20.3,16.2c0,0-0.4,0.3-0.3,0.2C20.1,16.4,20.2,16.3,20.3,16.2z"/>
				<path class="st1" d="M38.7,15.9L38.7,15.9C38.7,15.9,38.7,15.9,38.7,15.9z"/>
				<path class="st1" d="M38.7,15.9c-0.1-0.1-0.1-0.1-0.2-0.2C38.5,15.9,38.7,15.9,38.7,15.9C38.7,15.9,38.7,15.9,38.7,15.9z"/>
				<path class="st1" d="M38.5,15.7C38.5,15.8,38.6,15.8,38.5,15.7C38.6,15.8,38.5,15.7,38.5,15.7z"/>
				<path class="st1" d="M39.3,16.3c0.1,0.1,0.7,0.5,0.7,0.5c-0.2-0.4-1.1-0.8-1.4-1C38.8,16,39.1,16.1,39.3,16.3
					C39.4,16.3,39.2,16.1,39.3,16.3z"/>
				<path class="st1" d="M38.4,15.7C38.4,15.7,38.2,15.6,38.4,15.7C38.5,15.8,38.5,15.7,38.4,15.7c0.1,0,0.2,0,0.2,0
					c-0.2,0-0.5-0.3-0.7-0.4C38.1,15.5,38.2,15.6,38.4,15.7C38.4,15.7,38.3,15.7,38.4,15.7z"/>
				<path class="st1" d="M39.5,16.7c0,0-0.7-0.6-0.8-0.7C39,16.1,39.2,16.7,39.5,16.7C39.6,16.7,39.1,16.7,39.5,16.7z"/>
				<path class="st1" d="M34.1,17.7c0,0,0.2,0.4,0.2,0.2c0,0-0.3-0.3-0.1-0.4C34.2,17.6,34.1,17.7,34.1,17.7
					C34.1,17.8,34.1,17.7,34.1,17.7z"/>
				<path class="st1" d="M34,17.7c0,0.1,0,0.1,0.1,0.1C34.1,17.7,34.1,17.7,34,17.7C34,17.7,34.1,17.7,34,17.7z"/>
				<path class="st1" d="M33.1,16.9C33.1,16.9,33.2,16.9,33.1,16.9C33.2,16.8,33.1,16.8,33.1,16.9C33.1,16.9,33.1,16.8,33.1,16.9z"
					/>
				<path class="st1" d="M33.8,17.5c0,0,0.1-0.1,0.1-0.1c-0.2-0.2-0.3,0.1-0.4,0.1c-0.1,0-0.2-0.3-0.3-0.3c0,0.1,0,0.1-0.1,0.1
					c-0.1-0.2,0.1-0.3,0-0.4c-0.1,0.1-0.4,0.7-0.4,0.7c0.2,0.1,0.2,0,0.4,0.1c0.3,0.2,0.3-0.1,0.4,0c0.1,0.1,0,0.3,0.1,0.3
					c0.2,0,0.1-0.3,0.3-0.3C33.9,17.4,33.9,17.6,33.8,17.5C33.8,17.4,33.8,17.5,33.8,17.5z"/>
				<path class="st1" d="M32.5,18c-0.2,0.2,0,0.5,0.1,0.4C32.5,18.5,32.6,17.9,32.5,18C32.5,18,32.5,17.9,32.5,18z"/>
				<path class="st1" d="M29.2,19.9c0,0,0.6-0.2,0.6-0.2C29.7,19.8,29.3,19.8,29.2,19.9C29.2,20,29.3,19.8,29.2,19.9z"/>
				<path class="st1" d="M28.2,24.8c-0.1-0.1-0.2-0.1-0.2-0.1C28.1,24.8,28.2,24.8,28.2,24.8z"/>
				<path class="st1" d="M28.3,25.1c0.1-0.1,0.1-0.2,0-0.3C28.3,24.8,28.2,25.2,28.3,25.1C28.4,24.9,28.3,25.1,28.3,25.1z"/>
				<path class="st1" d="M21.3,25.9C21.3,25.9,21.3,25.9,21.3,25.9C21.3,25.9,21.3,25.9,21.3,25.9z"/>
				<path class="st1" d="M29.1,26.3c0-0.1-0.1-0.2-0.2-0.3C28.9,26.1,29.1,26.2,29.1,26.3C29.1,26.1,29.2,26.3,29.1,26.3z"/>
				<path class="st1" d="M29.1,27.4c0.1,0,0.3-0.1,0.4-0.1c0.1,0-0.6-0.2-0.6-0.2c-0.1-0.1,0.3-0.1-0.1-0.2c-0.1,0-0.2,0-0.2,0
					c-0.4-0.1-0.6-0.4-1-0.4c-0.8-0.1-1.4-0.4-2,0.2c0.5,0.1,1.2-0.6,1.7,0c0.1,0.1,0.3,0.2,0.5,0.1c0.2,0,0,0.1,0.1,0.2
					c0.1,0.1,0.5,0.1,0.5,0.2c0,0.1-0.1,0.2-0.1,0.2C28.3,27.4,29.1,27.4,29.1,27.4C29.2,27.4,29.1,27.4,29.1,27.4z"/>
				<path class="st1" d="M42.7,19.5c-0.7-1-1.8-2.4-3-3c0.2,0.2,0.5,0.3,0.7,0.6c0,0-0.1-0.1-0.1-0.1c0,0,0.3,0.4,0.2,0.3
					c-0.1-0.1,0.5,0.4,0.4,0.3c0.1,0.1,0.8,0.9,0.9,0.9c-0.1,0-0.2-0.1-0.3-0.1c0,0,1.5,1.7,1.7,1.9C43.1,19.9,42.9,19.7,42.7,19.5
					C42.4,19.1,42.9,19.7,42.7,19.5z"/>
				<path class="st1" d="M30.4,28.1c0.3,0,0.7-0.3,1-0.2c0.1,0,0.3,0.1,0.2-0.1c-0.1-0.3-0.4,0-0.5-0.2c0,0,0.2-0.1,0.2-0.1
					c-0.1-0.1-1.6-0.2-1.6-0.1c0,0.1,0.5,0.1,0.3,0.3c0,0-0.7,0.3-0.6,0.3C29.7,28.1,30,28.1,30.4,28.1C30.5,28.1,30,28.1,30.4,28.1
					z"/>
				<path class="st1" d="M32.1,27.9c0.1,0.1,0.3,0.2,0.4,0.2c0,0,0.3-0.1,0.2-0.1C32.5,27.9,32.3,27.9,32.1,27.9z"/>
				<path class="st1" d="M33.5,30.9c0,0,0.1,0,0.1,0C33.4,30.9,33.4,30.9,33.5,30.9C33.5,30.9,33.4,30.9,33.5,30.9z"/>
				<path class="st1" d="M25.3,14.2C25.3,14.2,25.3,14.2,25.3,14.2C25.3,14.2,25.4,14.2,25.3,14.2C25.3,14.2,25.3,14.2,25.3,14.2z
					 M26.6,24.9C26.6,24.9,26.6,24.9,26.6,24.9C26.6,24.9,26.6,24.9,26.6,24.9C26.6,24.9,26.6,24.9,26.6,24.9z M42.7,35.5
					c0-0.3-0.3-0.1-0.4-0.2c0,0,0,0,0,0c0,0,0,0,0,0c-0.1-0.1-0.2-0.2-0.3-0.2c0.1,0,0.2,0.1,0.2,0.1c0,0-0.4-0.3-0.5-0.3
					c-0.2-0.1-0.4,0.1-0.4,0.1c-0.1,0-0.2,0-0.3,0c-0.4,0-0.2,0-0.6,0.2c0-0.1,0-0.1,0.1-0.2c0,0-0.2,0.4-0.2,0.4
					c-0.2-0.4,0.3-0.6-0.3-0.7c-0.3-0.1-0.9,0.2-1.1,0.6c0-0.1,0-0.1-0.1-0.1c0.2-0.2,0.3-0.4,0.5-0.7c-0.2,0-0.2,0-0.4,0.1
					c-0.4,0.1-0.2,0-0.3,0.3c0,0-0.2,0.1-0.4,0.2c0,0,0,0,0,0c0,0,0,0-0.1,0c0,0,0,0,0,0c-0.1,0.1-0.3,0.1-0.3,0.1
					c0.1-0.2,0.4-0.4,0.5-0.6c0,0,0.3-0.4,0.4-0.5c0.1-0.1-0.4-1.1-0.5-1.2c0,0.1,0,0.1,0,0.1c0,0,0,0-0.1-0.1
					c-0.1-0.1-0.1-0.2-0.2-0.3c-0.6-0.4-0.6,0-1.2-0.1c-0.5-0.1-0.8-0.1-1-0.5c-0.3-0.4-0.7-0.3-1-0.3c0,0-0.1,0-0.1,0
					c0,0,0.1,0,0.1-0.1c0.1-0.1,0.2-0.3,0.1-0.3l-0.3-0.2c0,0,0,0,0,0c0,0,0,0.1,0,0.1c-0.1-0.1-0.1-0.1-0.2-0.2c0,0.1,0,0.1,0,0.2
					c-0.1-0.1-0.1-0.1-0.1-0.2c0,0-0.2-0.2-0.2-0.2c-0.1,0-0.2,0-0.3,0c0.1,0-0.5,0.2-0.7,0.2c-0.3,0-0.8,0.1-1-0.1
					c-0.1-0.1-0.1-0.4-0.4-0.3c-0.3,0.1-0.2-0.3-0.3-0.3c0,0-0.6,0.6-0.6,0.6c-0.1-0.3-0.2-0.2,0-0.4c0.3-0.2,0-0.3-0.2-0.3
					c-0.1,0,0,0.2-0.1,0.3c-0.3,0.2-0.6,0-0.8,0.4c-0.2-0.1-0.6,0.1-0.5,0.3c0.2,0.2-0.3,0.4-0.3,0.7c-0.1,0.6-0.5-0.1-0.6-0.3
					c-0.2-0.2-0.5-0.1-0.7,0c0,0,0,0,0,0c0,0,0,0,0,0h0c-0.1,0-0.1,0-0.2,0c0.1,0,0.1,0,0.2,0c-0.1,0-0.1,0-0.2,0c0,0,0,0,0,0
					c-0.2,0-0.6,0.2-0.7,0.2c-0.2,0-0.5-0.6-0.6-0.8c-0.1-0.3-0.1-0.7,0-1c0-0.1,0.2-0.6,0.2-0.6c-0.3-0.6-2.1-0.1-2.1-0.4
					c0-0.1,0.3-0.5,0.3-0.7c0,0-0.1-0.5,0.1-0.5c0,0.1,0.1,0.2,0.1,0.3c0,0,0.1-0.4,0.1-0.5c0,0,0.1-0.1,0.1-0.1c0,0-0.1,0-0.1,0
					c0-0.1,0.4-0.6,0.4-0.6c-0.1,0-1.5-0.3-1.3,0.2c0.2,0.6-0.7,0.8-1.1,0.8c-1,0.2-1.4-1.3-1.1-2.2c0,0,0,0,0,0
					c0,0,0.1-0.4,0.2-0.5c0,0,0,0.1-0.1,0.1c0.1-0.8,0.1-1,0.7-1.3c0,0-0.1,0-0.1,0.1c0.2-0.1,0.4-0.3,0.6-0.4c0,0-0.1,0.1-0.1,0.1
					c0.3-0.2,0.7-0.4,1.1-0.1c0.1,0.1,0.4,0.4,0.3,0c-0.1-0.4,0.1-0.1,0.3-0.3c0.1-0.1,1-0.1,1.2,0c0,0,0,0.2,0,0.2c0,0,0,0,0,0
					c0.1,0.2,0.4-0.2,0.5-0.1c0.1,0,0.4,0.4,0.4,0.5c0,0,0,0.1,0,0.2c0,0,0,0.1,0,0.1c0,0,0,0.1,0,0.1c0,0,0.3,0.2,0.3,0.3
					c0,0,0-0.1,0.1,0c0,0,0,0-0.1,0.1c0,0,0,0,0,0c-0.3,0,0.2,0.3,0.2,0.3c0.1,0.1,0,0.5,0.3,0.2c0.3-0.2,0.1-0.8,0-1.1
					c0,0,0-0.1-0.1-0.2c0,0,0,0,0,0.1c0,0,0-0.1,0-0.1c0,0,0,0,0,0c-0.1-0.2-0.1-0.4-0.2-0.5c-0.1-0.3,0-0.7,0.3-0.9
					c0.1-0.1,1.6-1.1,1.6-1.1c-0.1-0.1-0.3,0-0.3-0.1c0-0.1,0.3,0,0.3,0c0,0,0,0,0,0c0,0,0-0.1,0-0.1v0c-0.1-0.1-0.2-0.1-0.3-0.2
					c0.3,0.1,0-0.4-0.1-0.5c0,0,0.1,0.1,0.1,0.1c-0.1-0.1-0.1-0.4,0.1-0.5c0.3-0.2,0.1,0.4,0,0.4c0,0.1,0.3,0.4,0.1,0.4
					c0.2-0.1,0.2-0.5,0.2-0.6c0.4,0.1,0.3-0.4,0.3-0.5c0.2-0.4,0.8-0.1,0.9-0.6c0-0.2,0.1-0.4,0.3-0.5c0,0,0.9-0.4,0.9-0.4
					c0.2,0.1,0.3-0.4,0.2-0.5c-0.1,0-0.5-0.2-0.6-0.2c0.1,0,0.6-0.1,0.6-0.2c-0.3-0.1-0.7-0.1-1,0c0,0-0.6,0.5-0.7,0.5
					c0-0.1,0.5-0.5,0.5-0.6c0.2-0.2,0.9-0.2,1.2-0.3c0,0.3,0.3,0.1,0.5,0.2c-0.1-0.1-0.3-0.1-0.4-0.2c0.2,0,0.6,0,0.7-0.1
					c0.3-0.2,0.2-0.2,0.5-0.3c0.3-0.1,0.3-0.4,0-0.4c-0.2,0-0.5-0.1-0.7-0.1c0,0,0.3-0.2,0.3-0.2c-0.5-0.3-0.6,0.1-1.1-0.3
					c0,0,0.1,0,0.1,0c0,0-0.1,0-0.1,0c0,0,0.1-0.1,0.1-0.1c-0.1-0.1-0.2-0.1-0.3-0.1c0,0-0.3-0.3-0.3-0.3c-0.1-0.4-0.2,0.2-0.3,0.2
					c-0.2,0.1-1-0.2-1-0.3c0-0.1,0.3-0.1,0.3-0.2c-0.1-0.1-0.4-0.1-0.5-0.1c0,0,0,0,0,0c-0.3,0-1-0.4-0.9,0.2
					c0.1,0.3-0.2,0.1-0.3,0.4c0,0.2,0.5,0.1,0.4,0.5c-0.1,0.3-0.6,0.2-0.7,0.4c0-0.1,0.2,0.4,0.2,0.4c0.3,0.3-0.2,0.3-0.3,0.3
					c0,0,0.1,0.2,0.1,0.2c-0.4,0-0.3-0.7-0.5-0.9c-0.2-0.2-1.2-0.2-1.5-0.3c-0.5-0.1-0.2,0-0.5-0.4c-0.1-0.1,0.5-0.6,0.5-0.6
					c0.2-0.1,1.5-0.7,1.7-0.7c0,0-0.1,0-0.1-0.1c0.2-0.1,0.4,0.2,0.6-0.2c0.2-0.3-0.4-0.1-0.5-0.1c-0.1,0.1-0.2,0.3-0.4,0.2
					c-0.1-0.1-0.2-0.2-0.4-0.3c-0.1,0,0.2-0.2,0.1-0.2c0,0-0.4,0.2-0.4,0.2c0.1,0,0.1,0.1,0.2,0.1c0,0-0.4,0.2-0.5,0.3
					c0,0,0.1-0.1,0.1-0.2c-0.1-0.1-0.5,0.1-0.6,0.1c-0.1,0-0.2,0-0.3-0.1c-0.1,0-0.1,0.1-0.2,0c0,0,0,0,0.1,0h0c0,0,0,0,0.1,0
					c0,0-0.1,0-0.1,0c0,0-0.1,0-0.1,0.1c0,0-0.2,0.4-0.3,0.1c-0.2-0.3-0.5-0.1-0.8-0.1c0,0,0.2-0.1,0.2-0.1c0,0-0.1,0-0.2,0.1
					c-0.7,0.1-1.3,0.4-1.9,0.7c-0.4,0.2-0.8,0.4-1.2,0.7c0.1,0-0.2,0.4-0.3,0.4c-0.2,0.2-0.4,0.4-0.4,0.5c0,0,0.1,0,0.2-0.1
					c-0.1,0-0.2,0.2-0.3,0.2c0.1-0.1,0.2-0.2,0.3-0.3c0,0-0.1,0.2-0.2,0.2c-0.2,0-0.4,0.3-0.5,0.5c0,0,0.1,0,0.1,0
					c0,0-0.4,0.2-0.4,0.3c0.2,0.2,0.2-0.1,0,0.4c-0.1,0.2-0.2,0.3-0.4,0.4c0.2-0.3,0.2-0.3,0.2-0.7c0,0.4-0.6,1-0.8,1.3
					c-0.3,0.3-0.5,0.6-0.7,0.9c-0.1,0.2-0.2,0.3-0.3,0.4c-0.1,0.3,0,0.2,0,0.5c-0.1,0-0.1,0-0.2,0.1c-0.1,0.1-0.1,0.4-0.1,0.5
					c-0.1,0.4-0.1,0.6,0,1.1c0.1,0.4,0,0.9,0.2,1.2c0.1,0.3-0.1,0.6-0.2,0.5c0.1,0.3,0.4,0.4,0.4,0.7c0,0.3-0.1,0.3,0,0.5
					c0,0,0.2,0.5,0.2,0.5c0.4-0.2-0.1-1.4-0.2-1.8c0-0.1-0.1-1.5,0-1.5c0.4,0,0.3,0.7,0.2,0.9c0,0.3,0.2,0.4,0.2,0.5
					c0.1,0.2-0.1,0.6,0,0.8c0.1,0.2,0.3,0.3,0.4,0.4c-0.1-0.1,0,0.4,0.1,0.3c0,0,0-0.2,0-0.3c0.2,0.3,0.3,1.2,0.2,1.5
					c-0.1,0.4,0,0.3,0.3,0.7c0.2,0.3,0.4,0.2,0.7,0.5c0.3,0.4,1.4,1.1,1.9,0.8c0,0-0.3-0.1-0.3-0.2c0.1-0.6,1.3,0.7,1.3,0.7
					c0.3,0.3,0.5,0.2,0.8,0.3c0.1,0.1,0.3,0.1,0.4,0.2c0.6,0.3,0.3-0.1,0.3-0.1c0.1,0,0.2,0.1,0.2,0.2c0,0-0.1,0-0.1,0
					c0,0.1,0.5,0.5,0.6,0.6c0.1,0.1,0.1,0.6,0.2,0.6c0,0,0.3-0.4,0.4-0.1c0,0.1,0.1,0.4,0.2,0.2c0.3-0.3,0.1,0.5,0.4,0.4
					c0,0,0-0.1-0.1-0.1c0.1-0.1,0.2,0.1,0.2,0.2c0.1,0.2,0.2,0,0.3,0c0,0,0.5,0.3,0.5,0.2c0.1,0.2-0.1,0.3,0.2,0.2
					c0.3-0.1,0-0.2,0-0.3c0,0,0.4-0.4,0.4-0.4c0.2-0.1,0.4,0.5,0.5,0.2c-0.2,0.4,0.4,0.7,0.3,0.9c-0.1,0.1,0.2,0.2,0,0.3
					c-0.3,0.1,0.2,0.7,0.2,0.7c0,0.2-0.3,0.6-0.4,0.6c-0.5,0-0.2,0.4-0.2,0.5c-0.1,0.2-0.6,0-0.5,0.3c0,0.1,0,0.2-0.1,0.2
					c-0.2,0.1,0,0.1,0,0.2c0,0.2-0.4,0.6-0.1,0.7c0.3,0.2,0.1-0.2,0.3-0.2c0.1,0,0,0.4,0,0.4c0,0.1-0.3,0.2-0.3,0.2
					c-0.1,0.1-0.3,0.2-0.2,0.4c0.1,0.1,0.1,0.2,0.2,0.3c0,0-0.1,0.1-0.1,0.1c0,0.2,0.5,0.2,0.6,0.4c0.1,0.2,0.3,0.3,0.4,0.5
					c0.3,0.4,0.4,0.8,0.7,1.2c0.2,0.3,0.6,0.9,1.1,1.1c0.4,0.2,1.7,0.4,1.6,1.1c0,0.2,0.1,0.7-0.1,0.8c-0.2,0.2,0,0.5-0.2,0.9
					c0,0.1-0.2,0.8-0.3,0.8c-0.2,0.1,0.1,0.5-0.1,0.7c-0.1,0.2-0.3,0.3-0.3,0.5c0,0-0.1,0.4-0.1,0.5c0,0,0.2,0.3,0.3,0.2
					c0,0-0.1,0.3-0.1,0.3c-0.2,0.1-0.5,0.1-0.7,0.2c0,0,0.6,0,0.6,0.1c0,0.1-0.3-0.1-0.3,0c-0.2,0.6,1.9-0.2,1.9-0.2
					c-0.1,0-0.4-0.1-0.3-0.1c0.1-0.1,1-0.4,0.9-0.4c0,0-0.1,0-0.1,0c0.1,0,0.5-0.3,0.5-0.2c0,0-0.1,0.1,0,0.1c0-0.1,1.6-0.6,1.8-0.7
					c0.1-0.1,0.5-0.4,0.1-0.4c-0.2,0-0.4-0.3-0.1-0.3c-0.2,0.3,0.2,0.2,0.3,0.2c0.4,0,0.6-0.1,1-0.3c0.3-0.2,0.5-0.5,0.8-0.7
					c0,0,0.3-0.3,0.2-0.1c0,0.1-0.5,0.4-0.5,0.4c0.7-0.2,1.3-1.1,1.6-1.7c0,0-0.1,0-0.1,0c0.3-0.4,1.3-0.9,1.7-1.1c0,0,0,0.1,0,0.1
					c0.6-0.1,1-1.2,1.3-1.6c0.2-0.3,0.3-0.6,0.4-0.9c0-0.2,0.1-0.7,0.2-0.8c0.5-0.3,0.6-1.1,1-1.4c0.2-0.1,0.2-0.1,0.3-0.4
					C42.7,35.9,42.7,35.7,42.7,35.5z M32.1,16.4C32.1,16.4,32.1,16.4,32.1,16.4C32.1,16.4,32.1,16.4,32.1,16.4
					C32.1,16.4,31.9,16.5,32.1,16.4z M30,15.6C30,15.6,30,15.6,30,15.6L30,15.6C29.9,15.6,30,15.6,30,15.6z M28.9,20.1
					c-0.1,0.1-0.1,0.1-0.2,0.2C28.8,20.2,28.9,20.2,28.9,20.1z M26.8,14.4C26.8,14.4,26.9,14.4,26.8,14.4c0.1,0,0.1,0,0.2,0.1
					c-0.1,0-0.4,0.1-0.4,0C26.6,14.4,26.8,14.4,26.8,14.4z M30.7,31.8C30.6,31.8,30.6,31.8,30.7,31.8L30.7,31.8
					C30.6,31.8,30.6,31.8,30.7,31.8C30.6,31.8,30.6,31.7,30.7,31.8L30.7,31.8c-0.5-0.2-0.1-0.4-0.1-0.6C30.6,31.2,31,31.9,30.7,31.8
					z M38.6,35.2c-0.1,0-0.1-0.1-0.1-0.2C38.5,35.1,38.6,35.1,38.6,35.2C38.6,35.2,38.6,35.2,38.6,35.2z M34.1,31
					C34.1,31.1,34.1,31.1,34.1,31C34.1,31.1,34.1,31.1,34.1,31z M30.7,45.2C30.8,45.2,30.8,45.1,30.7,45.2
					C30.8,45.1,30.8,45.1,30.7,45.2C30.8,45.1,30.8,45.1,30.7,45.2z"/>
				<path class="st1" d="M23.1,35.3c0.1,0.1,0.1,0.5,0.1,0.4C23.6,35.9,23,35.2,23.1,35.3z"/>
				<path class="st1" d="M38.2,34.9c0,0,0,0.2-0.1,0.2c0.1-0.1,0.2-0.2,0.2-0.3C38.3,34.7,38.2,34.9,38.2,34.9z"/>
				<path class="st1" d="M24,14.3c0,0,0.1,0,0.1,0C24.2,14.2,24.2,14.1,24,14.3C24,14.3,24.2,14.1,24,14.3z"/>
				<path class="st1" d="M31.9,18.3c-0.1-0.2-0.2-0.2-0.3-0.1C31.7,18.3,31.8,18.3,31.9,18.3C31.8,18.2,31.9,18.3,31.9,18.3z"/>
				<path class="st1" d="M31.7,18.4c0.1,0-0.4,0.2-0.4,0.3c0.1,0.4,0.4,0.1,0.5,0c0.2-0.1,0.5-0.1,0.8-0.3c0,0-0.6-0.1-0.7-0.1
					C32.1,18.6,31.8,18.4,31.7,18.4C31.6,18.5,31.8,18.4,31.7,18.4z"/>
				<path class="st1" d="M27.3,14.3C27.3,14.2,27.3,14.2,27.3,14.3C27.3,14.1,27,13.8,27.3,14.3C27.3,14.3,27,13.8,27.3,14.3z"/>
				<path class="st1" d="M28.7,21.3C28.6,21.1,28.7,21.2,28.7,21.3C28.7,21.3,28.7,21.3,28.7,21.3z"/>
				<path class="st1" d="M28.8,21.5c0-0.1,0-0.2-0.1-0.2C28.7,21.4,28.7,21.5,28.8,21.5C28.8,21.4,28.8,21.5,28.8,21.5z"/>
				<path class="st1" d="M26.4,24.5c0,0,0-0.1,0-0.1C26.3,24.3,26.4,24.4,26.4,24.5C26.4,24.5,26.4,24.5,26.4,24.5z"/>
				<path class="st1" d="M43.1,19.8c0,0.1,0.3,0.6,0.3,0.6c-0.1,0-0.2-0.2-0.2-0.2c0,0,1,2.1,1,2.4c0,0.3,0.7,3,0.9,3
					c0,0,0-0.1,0-0.1c-0.1,0.2,0.2,1.1,0.3,1.3c0,0.1,0,0.4,0.2,0.5c0,0,0.1,0,0.1,0c0,0.1-0.1,0.1-0.1,0.2c0,0,0.1,0,0.1,0
					c0,0.1-0.1,0.2-0.1,0.2c0,0.1,0.2-0.1,0.2,0.1c-0.1,0.2,0.2,0.5,0.3,0.7c0,0.1,0.4,1.1,0.4,1.1c0.4-0.6,0.1-1.6,0-2.2
					c-0.1-0.9-0.4-1.8-0.6-2.7C45.1,23,44.2,21.4,43.1,19.8z"/>
			</g>
			<path class="st2" d="M36.6,23.8c-1.9,0-3.4,1.5-3.4,3.4c0,0.7,0.5,2.4,1.2,4c0.1,0.1,0.1,0.3,0.2,0.4c0,0,0,0.1,0,0.1
				c0.9,2.3,2,4.5,2,4.5s0.7-1.5,1.5-3.3c0.9-2.1,1.9-4.8,1.9-5.8C40,25.3,38.5,23.8,36.6,23.8z M36.8,29c-0.9,0-1.6-0.7-1.6-1.6
				c0-0.9,0.7-1.6,1.6-1.6c0.9,0,1.6,0.7,1.6,1.6C38.4,28.3,37.7,29,36.8,29z"/>
		</g>
	</g>
</g>
</svg>
