<?xml version="1.0" encoding="utf-8"?>
<!-- Generator: Adobe Illustrator 19.0.0, SVG Export Plug-In . SVG Version: 6.00 Build 0)  -->
<svg version="1.1" id="图层_1" xmlns="http://www.w3.org/2000/svg" xmlns:xlink="http://www.w3.org/1999/xlink" x="0px" y="0px"
	 viewBox="-267 390.9 60 60" style="enable-background:new -267 390.9 60 60;" xml:space="preserve">
<style type="text/css">
	.st0{fill:#86CCEF;}
	.st1{fill:#2C6277;}
	.st2{fill:#35ADC9;}
	.st3{fill:#FFFFFF;}
	.st4{fill:#2C76A8;}
	.st5{fill:#D0E7EF;}
	.st6{fill:#EF615E;}
	.st7{fill:#FB6262;}
	.st8{fill:#A7CFEA;}
	.st9{fill:#CDDEE8;}
	.st10{fill:#37ABDD;}
	.st11{fill:#FF8D89;}
	.st12{opacity:0.55;fill:#9C171C;}
</style>
<g id="XMLID_592_">
</g>
<g id="XMLID_595_">
</g>
<g id="XMLID_596_">
</g>
<g id="XMLID_597_">
</g>
<g id="XMLID_598_">
</g>
<path class="st0" d="M-493.3,828.7c0,2.1-1.7,3.8-3.8,3.8h-15.6c-2.1,0-3.8-1.7-3.8-3.8v-35.8c0-2.1,1.7-3.8,3.8-3.8h15.7
	c2.1,0,3.8,1.7,3.8,3.8L-493.3,828.7L-493.3,828.7z"/>
<g>
	<path class="st1" d="M-493.2,791.8c-0.4-1.4-1.4-2.4-2.8-2.8c-0.3-0.1-0.7-0.1-1-0.1h-15.7c-2.2,0-4,1.8-4,4v35.8
		c0,0.2,0,0.4,0,0.6c0.3,1.7,1.6,3,3.3,3.3c0.2,0,0.4,0,0.6,0h15.7c2.2,0,4-1.8,4-4v-35.7C-493.1,792.5-493.2,792.2-493.2,791.8z
		 M-497.1,832.3h-15.6c-0.3,0-0.7-0.1-1-0.1c-1.2-0.3-2.2-1.3-2.5-2.5c-0.1-0.3-0.1-0.7-0.1-1v-35.8c0-2,1.6-3.7,3.7-3.7h15.7
		c0.5,0,1.1,0.1,1.5,0.3c0.8,0.4,1.4,1,1.8,1.8c0.2,0.5,0.3,1,0.3,1.5v35.8C-493.4,830.7-495.1,832.3-497.1,832.3z"/>
</g>
<g>
	<path class="st1" d="M-493.4,791.7c-0.4-1.2-1.4-2.2-2.6-2.6c-0.4-0.1-0.7-0.2-1.1-0.2h-15.6c-2.1,0-3.9,1.7-3.9,3.9v35.8
		c0,0.2,0,0.5,0.1,0.7c0.3,1.6,1.5,2.8,3.1,3.1c0.2,0,0.5,0.1,0.7,0.1h15.7c2.1,0,3.9-1.7,3.9-3.9v-35.7
		C-493.2,792.5-493.3,792.1-493.4,791.7z M-497.1,832.4h-15.6c-0.3,0-0.6,0-0.9-0.1c-1.3-0.3-2.4-1.4-2.7-2.7
		c-0.1-0.3-0.1-0.6-0.1-0.9v-35.8c0-2.1,1.7-3.7,3.7-3.7h15.7c0.5,0,1,0.1,1.4,0.3c0.9,0.3,1.6,1,2,2c0.2,0.4,0.3,0.9,0.3,1.4v35.8
		C-493.3,830.7-495,832.4-497.1,832.4z"/>
</g>
<path class="st2" d="M-493.4,791.7c-0.4-1.2-1.3-2.1-2.5-2.5c-0.4-0.1-0.8-0.2-1.2-0.2h-15.6c-2.1,0-3.9,1.7-3.9,3.9v35.8
	c0,0.3,0,0.5,0.1,0.7c0.3,1.5,1.5,2.8,3.1,3.1c0.2,0,0.5,0.1,0.7,0.1h15.7c2.1,0,3.9-1.7,3.9-3.9v-35.8
	C-493.2,792.5-493.3,792.1-493.4,791.7z M-493.3,828.7c0,2.1-1.7,3.8-3.8,3.8h-15.6c-0.3,0-0.5,0-0.8-0.1c-1.5-0.3-2.6-1.5-2.9-2.9
	c-0.1-0.3-0.1-0.5-0.1-0.8v-35.8c0-2.1,1.7-3.8,3.8-3.8h15.7c0.4,0,0.9,0.1,1.3,0.2c1.1,0.4,2,1.3,2.3,2.3c0.1,0.4,0.2,0.8,0.2,1.3
	L-493.3,828.7L-493.3,828.7z"/>
<rect x="-515.9" y="794.4" class="st3" width="22" height="34.1"/>
<g>
	<path class="st1" d="M-502.6,792.3c0,0.1-0.1,0.2-0.2,0.2h-4.1c-0.1,0-0.2-0.1-0.2-0.2l0,0c0-0.1,0.1-0.2,0.2-0.2h4.1
		C-502.7,792.1-502.6,792.2-502.6,792.3L-502.6,792.3z"/>
	<circle class="st1" cx="-504.9" cy="791.2" r="0.3"/>
</g>
<path class="st4" d="M-516.6,795.8v2.9l0,0h-0.1c-0.1,0-0.2-0.2-0.2-0.3v-2.2C-516.9,796.1-516.8,795.9-516.6,795.8
	C-516.7,795.8-516.6,795.8-516.6,795.8L-516.6,795.8z"/>
<path class="st4" d="M-516.6,799.6v2.9l0,0h-0.1c-0.1,0-0.2-0.2-0.2-0.3V800c0-0.1,0.1-0.3,0.2-0.3
	C-516.7,799.7-516.6,799.7-516.6,799.6L-516.6,799.6z"/>
<path class="st1" d="M-516.6,803.2v2.9l0,0h-0.1c-0.1,0-0.2-0.2-0.2-0.3v-2.2c0-0.1,0.1-0.3,0.2-0.3
	C-516.7,803.2-516.6,803.2-516.6,803.2L-516.6,803.2z"/>
<path class="st4" d="M-493.2,795.7c0.2,0,0.3,0.1,0.3,0.2v1.8c0,0.1-0.1,0.2-0.3,0.2V795.7z"/>
<g>
	<path class="st4" d="M-515.9,794.4v34.1h22.1v-34.1H-515.9z M-493.9,828.5h-22v-34h22V828.5z"/>
</g>
<rect x="-514.1" y="801.6" class="st5" width="7" height="6.4"/>
<rect x="-514.1" y="809.9" class="st5" width="7" height="6.4"/>
<rect x="-514.1" y="818.4" class="st5" width="7" height="6.4"/>
<g>
	<rect x="-504.7" y="801.4" class="st5" width="9.1" height="0.5"/>
	<rect x="-504.7" y="803.1" class="st5" width="9.1" height="0.5"/>
	<rect x="-504.7" y="804.8" class="st5" width="9.1" height="0.5"/>
	<rect x="-504.7" y="806.5" class="st5" width="9.1" height="0.5"/>
	<rect x="-504.7" y="808.2" class="st5" width="9.1" height="0.5"/>
	<rect x="-504.7" y="809.9" class="st5" width="9.1" height="0.5"/>
	<rect x="-504.7" y="811.6" class="st5" width="9.1" height="0.5"/>
	<rect x="-504.7" y="813.3" class="st5" width="9.1" height="0.5"/>
	<rect x="-504.7" y="815" class="st5" width="9.1" height="0.5"/>
</g>
<rect x="-504.8" y="818.2" class="st5" width="9.1" height="0.5"/>
<rect x="-504.8" y="819.9" class="st5" width="9.1" height="0.5"/>
<rect x="-504.8" y="821.6" class="st5" width="9.1" height="0.5"/>
<rect x="-504.8" y="823.3" class="st5" width="9.1" height="0.5"/>
<rect x="-504.8" y="824.9" class="st5" width="9.1" height="0.5"/>
<g>
	<path class="st6" d="M-509,797.5c0,0.4-0.1,0.7-0.3,0.9c-0.2,0.2-0.5,0.4-0.8,0.4c-0.4,0-0.7-0.1-0.9-0.4c-0.2-0.2-0.4-0.6-0.4-0.9
		c0-0.4,0.1-0.7,0.3-0.9c0.2-0.2,0.5-0.4,0.9-0.4c0.3,0,0.6,0.1,0.9,0.4C-509.1,796.8-509,797.1-509,797.5z M-509.5,797.5
		c0-0.4-0.1-0.8-0.3-1c-0.1-0.2-0.3-0.2-0.5-0.2c-0.3,0-0.5,0.1-0.6,0.4c-0.1,0.2-0.1,0.5-0.1,0.8c0,0.4,0.1,0.7,0.2,0.9
		c0.1,0.2,0.3,0.3,0.5,0.3C-509.7,798.6-509.5,798.3-509.5,797.5z"/>
	<path class="st6" d="M-506.4,798.5c0,0.1-0.1,0.2-0.3,0.2c-0.2,0-0.4-0.1-0.5-0.2c-0.1-0.1-0.1-0.1-0.1-0.2c0-0.1,0-0.2-0.1-0.5
		c0-0.2-0.1-0.3-0.1-0.3c-0.1-0.1-0.2-0.1-0.4-0.1v1.1c0,0.1,0.1,0.1,0.3,0.1h0.1c0,0,0,0-0.1,0h-0.1h-0.3c-0.1,0-0.2,0-0.3,0
		s-0.2,0-0.2,0h-0.1c-0.1,0-0.2,0-0.2,0s0,0,0.1,0c0,0,0,0,0.1,0l0,0c0.1,0,0.2,0,0.2-0.1v-2.2v-0.1c0,0-0.1,0-0.2,0s-0.1,0-0.1,0
		s0,0,0.1,0l0,0c0.1,0,0.2,0,0.5,0c0.1,0,0.2,0,0.3,0c0.1,0,0.1,0,0.2,0c0.2,0,0.4,0,0.6,0.1c0.1,0.1,0.2,0.2,0.2,0.4
		s-0.1,0.3-0.2,0.4c-0.2,0.1-0.4,0.2-0.7,0.2c0.3,0,0.5,0.1,0.6,0.2c0.1,0.1,0.2,0.4,0.2,0.7c0,0.2,0.1,0.3,0.2,0.3l0,0l0,0l0,0
		c0-0.1,0-0.1,0.1-0.1C-506.5,798.4-506.4,798.5-506.4,798.5z M-507.3,796.8c0-0.3-0.2-0.5-0.5-0.5c-0.1,0-0.1,0-0.2,0v0.1v0.9
		C-507.5,797.3-507.3,797.1-507.3,796.8z"/>
	<path class="st6" d="M-503.8,797.4c0,0.4-0.2,0.8-0.5,1c-0.2,0.2-0.5,0.3-0.9,0.3c0,0,0,0-0.1,0c-0.1,0-0.2,0-0.4,0h-0.1
		c0,0,0,0-0.1,0c-0.1,0-0.1,0-0.2,0l0,0c-0.1,0-0.1,0-0.1-0.1c0,0,0,0,0.1,0h0.1c0.1,0,0.1,0,0.1-0.1c0,0,0-0.1,0-0.2v-1.7
		c0-0.2,0-0.3,0-0.3s-0.1,0-0.2,0c-0.1,0-0.1,0-0.1,0s0,0,0.1,0l0,0c0,0,0.1,0,0.2,0h0.4c0.5,0,0.8,0,1,0.1c0.2,0.1,0.4,0.2,0.6,0.4
		C-503.9,796.9-503.8,797.2-503.8,797.4z M-504.3,797.4c0-0.8-0.3-1.1-0.9-1.1c-0.2,0-0.3,0-0.3,0s0,0.1,0,0.2v1.9
		c0,0.1,0,0.1,0,0.1s0.1,0,0.2,0C-504.6,798.6-504.3,798.2-504.3,797.4z"/>
	<path class="st6" d="M-501.4,798.1L-501.4,798.1c0,0.1,0,0.2,0,0.2v0.3v0.1h-0.9h-1c-0.1,0-0.1,0-0.1,0s0,0,0.1,0s0.2,0,0.2,0
		s0-0.1,0-0.2v-1.9c0-0.1,0-0.2,0-0.2s-0.1,0-0.2,0h-0.1c0,0,0,0,0.1,0h0.1h0.1h0.1l0,0c0,0,0.1,0,0.3,0c0.2,0,0.4,0,0.6,0h0.3
		c0.1,0,0.2,0,0.2,0l0,0v0.1c0,0.1,0,0.2,0,0.5c0,0,0,0,0,0.1v0.1c0,0-0.1,0-0.1-0.1c-0.1-0.3-0.1-0.4-0.3-0.5c-0.1,0-0.3,0-0.6,0
		h-0.3v1h0.1c0.2,0,0.4,0,0.4-0.1c0.1,0,0.1-0.1,0.1-0.3c0-0.1,0-0.2,0.1-0.2c0,0,0.1,0,0.1,0.1c0,0,0,0.1,0,0.2c0,0.1,0,0.2,0,0.2
		c0,0.2,0,0.4,0,0.5v0.1c0,0.1,0,0.1-0.1,0.1c0,0-0.1,0-0.1-0.1c0-0.2-0.1-0.3-0.1-0.4c0-0.1-0.2-0.1-0.4-0.1h-0.1v1.2
		c0.5,0,0.8,0,0.9,0c0.1,0,0.2-0.2,0.3-0.5c0-0.1,0-0.1,0.1-0.1C-501.4,797.9-501.4,798-501.4,798.1z"/>
	<path class="st6" d="M-498.9,798.5c0,0.1-0.1,0.2-0.3,0.2c-0.2,0-0.4-0.1-0.5-0.2c-0.1-0.1-0.1-0.1-0.1-0.2c0-0.1,0-0.2-0.1-0.5
		c0-0.2-0.1-0.3-0.1-0.3c-0.1-0.1-0.2-0.1-0.4-0.1v1.1c0,0.1,0.1,0.1,0.3,0.1h0.1c0,0,0,0-0.1,0h-0.1h-0.2c-0.1,0-0.2,0-0.3,0
		s-0.2,0-0.2,0h-0.1c-0.1,0-0.2,0-0.2,0s0,0,0.1,0c0,0,0,0,0.1,0l0,0c0.1,0,0.2,0,0.2-0.1v-2.2v-0.1c0,0-0.1,0-0.2,0s-0.1,0-0.1,0
		s0,0,0.1,0l0,0c0.1,0,0.2,0,0.5,0c0.1,0,0.2,0,0.3,0c0.1,0,0.1,0,0.2,0c0.2,0,0.4,0,0.6,0.1c0.1,0.1,0.2,0.2,0.2,0.4
		s-0.1,0.3-0.2,0.4c-0.2,0.1-0.4,0.2-0.7,0.2c0.3,0,0.5,0.1,0.6,0.2c0.1,0.1,0.2,0.4,0.2,0.7c0,0.2,0.1,0.3,0.2,0.3l0,0l0,0l0,0
		c0-0.1,0-0.1,0.1-0.1C-499,798.4-498.9,798.5-498.9,798.5z M-499.8,796.8c0-0.3-0.2-0.5-0.5-0.5c-0.1,0-0.1,0-0.2,0v0.1v0.9
		C-500,797.3-499.8,797.1-499.8,796.8z"/>
</g>
<polygon class="st7" points="-241.4,414.3 -241.4,417 -250.3,417 -250.3,416.9 -249.5,415.7 -250.3,414.3 "/>
<polygon class="st7" points="-233.5,414.3 -224.5,414.3 -225.3,415.7 -224.5,417 -233.5,417 "/>
<rect x="-237.5" y="419.6" class="st8" width="11.9" height="19.9"/>
<rect x="-249.3" y="419.6" class="st9" width="11.9" height="19.9"/>
<rect x="-250.7" y="416.9" class="st9" width="13.2" height="5.7"/>
<rect x="-237.5" y="416.9" class="st8" width="13.2" height="5.7"/>
<rect x="-249.3" y="422.7" class="st8" width="11.9" height="1"/>
<rect x="-237.5" y="422.7" class="st10" width="11.9" height="1"/>
<rect x="-239.4" y="416.9" class="st11" width="1.9" height="5.7"/>
<rect x="-237.5" y="416.9" class="st7" width="1.9" height="5.7"/>
<rect x="-239.4" y="423.7" class="st11" width="1.9" height="15.8"/>
<rect x="-237.5" y="423.7" class="st7" width="1.9" height="15.8"/>
<rect x="-239.4" y="422.7" class="st7" width="1.9" height="1"/>
<rect x="-237.5" y="422.7" class="st12" width="1.9" height="1"/>
<g>
	<g>
		<polygon class="st11" points="-247.1,410.9 -247.4,411.3 -247.8,411.8 -248.1,412.2 -248.1,412.2 -248.4,411.3 -248.4,410.8 
			-247.9,410.9 		"/>
		<polygon class="st11" points="-237.6,415.5 -237.6,416.4 -238,416 -238.7,414.9 		"/>
		<path class="st11" d="M-237.6,415.5L-237.6,415.5l-0.5-0.2l-0.2-0.1l-0.2-0.1l-8.9-3.9l-0.6-0.3l-0.4-0.2c0,0,1.6-3.2,10.5,4.4
			C-237.8,415.4-237.7,415.4-237.6,415.5z"/>
		<g>
			<path class="st7" d="M-248,411.2c0,0,0.2-3.2,10.3,4.5C-237.7,415.7-248.8,418.2-248,411.2z"/>
			<path class="st11" d="M-237.6,415.5v1.8c-0.2,0-0.4,0-0.6,0c-0.4,0-0.8,0-1.1,0c-0.9,0-1.7-0.1-2.4-0.2c-0.2,0-0.4-0.1-0.5-0.1
				c-3.6-0.6-5.1-1.9-5.7-2.6c-0.3-0.3-0.4-0.5-0.4-0.5v-2.9c0.1,0.2,0.2,0.4,0.4,0.6c0.1,0.1,0.2,0.2,0.3,0.4
				c1.1,1.2,2.8,2,4.5,2.6c0.6,0.2,1.2,0.4,1.8,0.5c1.3,0.3,2.4,0.5,3.1,0.6c0,0,0,0,0.1,0c0.1,0,0.2,0,0.3,0
				C-237.7,415.5-237.6,415.5-237.6,415.5C-237.6,415.5-237.6,415.5-237.6,415.5z"/>
		</g>
	</g>
	<g>
		<polygon class="st11" points="-227.9,410.9 -226.9,412.2 -226.6,411.3 -226.6,410.8 		"/>
		<polygon class="st11" points="-237.4,415.5 -237.4,416.4 -237,416 -236.3,414.9 		"/>
		<path class="st11" d="M-226.6,410.8l-0.1,0.1l-0.3,0.1l-0.6,0.2l-8.9,3.9l-0.2,0.1l-0.3,0.1l-0.4,0.2l0,0c0.1-0.1,0.2-0.2,0.3-0.2
			c5.9-5.1,8.7-5.4,9.8-5C-226.7,410.5-226.6,410.8-226.6,410.8z"/>
		<g>
			<path class="st7" d="M-226.9,411.2c0,0-0.2-3.2-10.3,4.5C-237.3,415.7-226.2,418.2-226.9,411.2z"/>
			<path class="st11" d="M-237.4,415.5c0,0,8.8-0.9,10.8-4.7v2.9c0,0-1.5,3.5-10.8,3.5V415.5z"/>
		</g>
	</g>
	<g>
		<g>
			<path class="st7" d="M-237.6,415.2v2.3c-0.3,0-0.5-0.1-0.6-0.2c-0.1-0.1-0.1-0.1-0.1-0.2v-1.5c0,0,0-0.1,0-0.1c0,0,0,0,0,0
				c0,0,0.1-0.1,0.1-0.1c0,0,0,0,0.1,0c0,0,0,0,0.1,0c0,0,0.1,0,0.1,0C-237.8,415.2-237.7,415.2-237.6,415.2z"/>
			<path class="st7" d="M-236.9,415.6v1.5c0,0.1,0,0.1-0.1,0.2c0,0-0.1,0.1-0.1,0.1c-0.1,0.1-0.3,0.1-0.4,0.1c0,0-0.1,0-0.1,0v-2.3
				c0.2,0,0.3,0,0.5,0.1c0,0,0,0,0.1,0c0,0,0,0,0.1,0c0,0,0,0,0.1,0.1c0,0,0,0,0,0C-236.9,415.5-236.9,415.6-236.9,415.6z"/>
		</g>
	</g>
</g>
</svg>
