<?xml version="1.0" encoding="utf-8"?>
<!-- Generator: Adobe Illustrator 22.0.0, SVG Export Plug-In . SVG Version: 6.00 Build 0)  -->
<svg version="1.1" id="图层_1" xmlns="http://www.w3.org/2000/svg" xmlns:xlink="http://www.w3.org/1999/xlink" x="0px" y="0px"
	 viewBox="0 0 60 60" style="enable-background:new 0 0 60 60;" xml:space="preserve">
<style type="text/css">
	.st0{fill:#E5BE96;}
	.st1{fill:#D5AC81;}
	.st2{fill:#B7936D;}
	.st3{fill:#6C472E;}
	.st4{fill:#4F3322;}
	.st5{fill:#EDDCCC;}
	.st6{fill:#F9A09B;}
	.st7{fill:#58B7C1;}
	.st8{fill:#FC7065;}
	.st9{fill:#1F92A1;}
</style>
<g id="XMLID_206_">
	<rect id="XMLID_49_" x="18.4" y="41.1" class="st0" width="3.9" height="15.3"/>
	<rect id="XMLID_48_" x="21.2" y="41.1" class="st1" width="1.1" height="15.3"/>
	<g id="XMLID_207_">
		<path id="XMLID_47_" class="st0" d="M18.1,56.6c0.4-1.1,1.5-1.9,2.6-1.9c1.1,0,2,0.7,2.2,1.6c0,0,0.2,0.8,0.1,1.7
			c0,0,0,0.5-0.6,0.5c0,0-0.6,0-0.6-0.5c0,0,0-1-0.9-1.2c0,0-0.1,0-0.2,0c-0.2,0-0.6,0.3-0.8,0.6c-0.2,0.5-0.1,1.2,0,1.5l0.6,1.1
			c0.3,0.5,0.1,1.1-0.4,1.4c-0.2,0.1-0.3,0.1-0.5,0.1c-0.4,0-0.7-0.2-0.9-0.5l-0.6-1.1C17.8,59,17.7,57.6,18.1,56.6z"/>
	</g>
</g>
<g id="XMLID_201_">
	<rect id="XMLID_46_" x="37.7" y="41.1" class="st1" width="3.9" height="15.3"/>
	<rect id="XMLID_45_" x="37.7" y="41.1" class="st2" width="1.1" height="15.3"/>
	<g id="XMLID_202_">
		<path id="XMLID_44_" class="st1" d="M41.9,56.6c-0.4-1.1-1.5-1.9-2.6-1.9c-1.1,0-2,0.7-2.2,1.6c0,0-0.2,0.8-0.1,1.7
			c0,0,0,0.5,0.6,0.5c0,0,0.6,0,0.6-0.5c0,0,0-1,0.9-1.2c0,0,0.1,0,0.2,0c0.2,0,0.6,0.3,0.8,0.6c0.2,0.5,0.1,1.2,0,1.5L39.4,60
			c-0.3,0.5-0.1,1.1,0.4,1.4c0.2,0.1,0.3,0.1,0.5,0.1c0.4,0,0.7-0.2,0.9-0.5l0.6-1.1C42.2,59,42.3,57.6,41.9,56.6z"/>
	</g>
</g>
<g id="XMLID_180_">
	<path id="XMLID_43_" class="st3" d="M30.2,9.5l0-2.4c-6.5,0-7.8,6.9-6.1,13.1c0.8,3.1-1.6,5.2-1.6,5.2l0.6-0.2l0.2,1.5
		c0,0,6.2-1.9,6.2-2c0-0.1,1.2-13.9,1.2-13.9L30.2,9.5z"/>
	<path id="XMLID_42_" class="st4" d="M30,9.5l0-2.4c6.5,0,7.8,6.9,6.1,13.1c-0.8,3.1,1.6,5.2,1.6,5.2l-0.6-0.2l-0.2,1.5
		c0,0-6.2-1.9-6.2-2c0-0.1-1.2-13.9-1.2-13.9L30,9.5z"/>
	<g id="XMLID_197_">
		<polygon id="XMLID_41_" class="st1" points="34.8,25.3 30,31.9 30,31.9 30,31.9 30,31.9 30,25.5 30,19 32.4,19.4 32.4,22.5 
			34.2,23.5 		"/>
	</g>
	<path id="XMLID_40_" class="st5" d="M32.4,19.4v1c-0.6,0.7-1.4,1.1-2.4,1h0V19L32.4,19.4z"/>
	<g id="XMLID_194_">
		<polygon id="XMLID_39_" class="st0" points="30,31.9 30,31.9 30,31.9 30,31.9 25.2,25.3 25.8,23.5 27.6,22.5 27.6,19.4 30,19 
			30,25.5 		"/>
	</g>
	<path id="XMLID_38_" class="st5" d="M30,19v2.5h0c-1,0-1.8-0.3-2.4-1v-1L30,19z"/>
	<g id="XMLID_185_">
		<g id="XMLID_186_">
			<g id="XMLID_190_">
				<g id="XMLID_191_">
					<path id="XMLID_37_" class="st0" d="M30,9.5l0,11.6c-2.3,0-3.5-2.1-4-4.4c0,0,0,0,0,0c0-0.2-0.1-0.4-0.1-0.6
						c-0.1-0.5-0.1-1.1-0.1-1.6c0-0.5,0.1-1.1,0.2-1.5c0-0.2,0.1-0.4,0.2-0.7c0.1-0.2,0.1-0.3,0.2-0.5C27,10.5,28.2,9.5,30,9.5z"/>
				</g>
			</g>
			<g id="XMLID_187_">
				<g id="XMLID_188_">
					<path id="XMLID_36_" class="st1" d="M34.3,14.5c0,0.5,0,1-0.1,1.5c0,0.2-0.1,0.4-0.1,0.6c-0.1,0.2-0.1,0.5-0.2,0.7
						c0,0,0,0.1,0,0.1c-0.1,0.5-0.3,0.9-0.5,1.3c-0.7,1.3-1.8,2.3-3.3,2.3l0-11.6c0.7,0,1.3,0.1,1.8,0.4c0.9,0.4,1.5,1.1,1.9,2
						c0,0,0,0,0,0c0.1,0.2,0.2,0.4,0.2,0.5v0c0,0,0,0,0,0.1c0.1,0.2,0.1,0.3,0.1,0.5c0,0.2,0.1,0.3,0.1,0.5
						C34.3,13.8,34.3,14.2,34.3,14.5z"/>
				</g>
			</g>
		</g>
	</g>
	<path id="XMLID_35_" class="st4" d="M31.9,9.7c0,0,0.9,3,2.8,6.3l0.9-3.6l-2.2-2.9L31.9,9.7z"/>
	<g id="XMLID_181_">
		<path id="XMLID_34_" class="st3" d="M28.4,8.9L25,11.2l-1.4,4.4l1.4,4.7c-0.6-3.1,1.5-4.7,1.5-4.7c1.4-0.8,2.6-1.9,3.5-3V8.9
			L28.4,8.9z"/>
		<path id="XMLID_33_" class="st4" d="M32.7,8.9H30v3.7c1.2-1.4,2-2.8,2-2.8L32.7,8.9z"/>
	</g>
</g>
<circle id="XMLID_32_" class="st6" cx="20.1" cy="29.8" r="3.2"/>
<polygon id="XMLID_31_" class="st6" points="18.6,27 26.6,23.1 26.6,53 22.3,53.1 25.6,46 22.3,34.9 "/>
<polygon id="XMLID_30_" class="st6" points="16.9,29.8 16.9,40 22.3,40 22.3,30.9 "/>
<path id="XMLID_27_" class="st7" d="M22.5,62.2h-2.8V57c0,0-0.4-2.6,2.6-3.9H30v9.1H22.5z"/>
<rect id="XMLID_26_" x="16.9" y="40" class="st8" width="4.4" height="1.1"/>
<rect id="XMLID_25_" x="21.2" y="40" class="st8" width="1.1" height="1.1"/>
<polygon id="XMLID_24_" class="st7" points="30,52.4 22.5,52.4 22.3,53.1 30,53.1 "/>
<circle id="XMLID_23_" class="st8" cx="39.9" cy="29.8" r="3.2"/>
<polygon id="XMLID_22_" class="st8" points="41.5,27 33.5,23.1 33.5,53 37.7,53.1 33.7,46 37.7,34.9 "/>
<polygon id="XMLID_21_" class="st8" points="43.2,29.8 43.2,40 37.7,40 37.7,30.9 "/>
<path id="XMLID_18_" class="st9" d="M37.5,62.3h2.8v-5.3c0,0,0.4-2.6-2.6-3.9H30v9.2H37.5z"/>
<rect id="XMLID_17_" x="38.8" y="40" class="st6" width="4.4" height="1.1"/>
<rect id="XMLID_16_" x="37.7" y="40" class="st6" width="1.1" height="1.1"/>
<polygon id="XMLID_15_" class="st9" points="30,52.4 37.6,52.4 37.7,53.1 30,53.1 "/>
<path id="XMLID_14_" class="st6" d="M22.3,34.9c0,0,3.6,10.9,0.2,17.5H30V34.1L25.9,24L19,32.1L22.3,34.9z"/>
<path id="XMLID_13_" class="st8" d="M37.7,34.9c0,0-3.6,10.9-0.2,17.5H30V34.1L34.1,24l6.9,8.1L37.7,34.9z"/>
<g id="XMLID_1_">
</g>
<g id="XMLID_2_">
</g>
<g id="XMLID_3_">
</g>
<g id="XMLID_4_">
</g>
<g id="XMLID_5_">
</g>
<g id="XMLID_6_">
</g>
</svg>
